<?xml version="1.0" encoding="UTF-8" standalone="no"?><!DOCTYPE svg PUBLIC "-//W3C//DTD SVG 1.1//EN" "http://www.w3.org/Graphics/SVG/1.1/DTD/svg11.dtd"><svg width="100%" height="100%" viewBox="0 0 661 661" version="1.1" xmlns="http://www.w3.org/2000/svg" xmlns:xlink="http://www.w3.org/1999/xlink" xml:space="preserve" xmlns:serif="http://www.serif.com/" style="fill-rule:evenodd;clip-rule:evenodd;stroke-linejoin:round;stroke-miterlimit:2;"><rect id="Artboard1" x="0" y="0" width="660.06" height="660.006" style="fill:none;"/><g id="Artboard11" serif:id="Artboard1"><g><path d="M628.263,131.707c-0.63,-0 -1.152,-0.513 -1.152,-1.143c0,-0.63 0.522,-1.143 1.152,-1.143c0.639,0 1.152,0.513 1.152,1.143c-0,0.63 -0.513,1.143 -1.152,1.143Z" style="fill:#a9a3b2;fill-rule:nonzero;"/><path d="M601.146,167.104c-0.675,0 -1.215,-0.54 -1.215,-1.215c0,-0.666 0.54,-1.206 1.215,-1.206c0.675,-0 1.224,0.54 1.224,1.206c-0,0.675 -0.549,1.215 -1.224,1.215Z" style="fill:#a9a3b2;fill-rule:nonzero;"/><path d="M594.315,117.667c-0.792,-0 -1.431,-0.639 -1.431,-1.422c-0,-0.783 0.639,-1.422 1.431,-1.422c0.792,0 1.431,0.639 1.431,1.422c-0,0.783 -0.639,1.422 -1.431,1.422Z" style="fill:#a9a3b2;fill-rule:nonzero;"/><path d="M571.554,230.302c-0.405,0 -0.738,-0.324 -0.738,-0.729c-0,-0.396 0.333,-0.729 0.738,-0.729c0.405,-0 0.738,0.333 0.738,0.729c-0,0.405 -0.333,0.729 -0.738,0.729Z" style="fill:#a9a3b2;fill-rule:nonzero;"/><path d="M538.002,268.336c-0.63,0 -1.134,-0.504 -1.134,-1.125c-0,-0.621 0.504,-1.116 1.134,-1.116c0.621,0 1.125,0.495 1.125,1.116c0,0.621 -0.504,1.125 -1.125,1.125Z" style="fill:#a9a3b2;fill-rule:nonzero;"/><path d="M512.432,229.204c-0.539,0 -0.971,-0.432 -0.971,-0.963c-0,-0.531 0.432,-0.963 0.971,-0.963c0.532,-0 0.973,0.432 0.973,0.963c0,0.531 -0.441,0.963 -0.973,0.963Z" style="fill:#a9a3b2;fill-rule:nonzero;"/><path d="M497.088,113.14c-0.45,0 -0.819,-0.36 -0.819,-0.81c0,-0.45 0.369,-0.81 0.819,-0.81c0.45,0 0.819,0.36 0.819,0.81c0,0.45 -0.369,0.81 -0.819,0.81Z" style="fill:#a9a3b2;fill-rule:nonzero;"/><path d="M420.498,111.88c-0.648,0 -1.17,-0.522 -1.17,-1.161c0,-0.639 0.522,-1.152 1.17,-1.152c0.639,0 1.161,0.513 1.161,1.152c-0,0.639 -0.522,1.161 -1.161,1.161Z" style="fill:#a9a3b2;fill-rule:nonzero;"/><path d="M444.825,110.998c-0.495,-0 -0.9,-0.396 -0.9,-0.882c-0,-0.486 0.405,-0.882 0.9,-0.882c0.495,0 0.891,0.396 0.891,0.882c0,0.486 -0.396,0.882 -0.891,0.882Z" style="fill:#a9a3b2;fill-rule:nonzero;"/><path d="M480.438,113.842c-0.792,-0 -1.431,-0.63 -1.431,-1.413c-0,-0.783 0.639,-1.413 1.431,-1.413c0.783,-0 1.422,0.63 1.422,1.413c-0,0.783 -0.639,1.413 -1.422,1.413Z" style="fill:#a9a3b2;fill-rule:nonzero;"/><path d="M442.818,58.708c-0.567,0 -1.035,-0.459 -1.035,-1.026c-0,-0.567 0.468,-1.026 1.035,-1.026c0.576,0 1.035,0.459 1.035,1.026c-0,0.567 -0.459,1.026 -1.035,1.026Z" style="fill:#a9a3b2;fill-rule:nonzero;"/><path d="M566.262,159.733c-0.99,0 -1.8,-0.792 -1.8,-1.782c-0,-0.981 0.81,-1.782 1.8,-1.782c0.99,0 1.8,0.801 1.8,1.782c0,0.99 -0.81,1.782 -1.8,1.782Z" style="fill:#a9a3b2;fill-rule:nonzero;"/><path d="M559.683,140.023c-0.738,0 -1.341,-0.594 -1.341,-1.332c-0,-0.729 0.603,-1.332 1.341,-1.332c0.738,0 1.341,0.603 1.341,1.332c-0,0.738 -0.603,1.332 -1.341,1.332Z" style="fill:#a9a3b2;fill-rule:nonzero;"/><path d="M505.062,24.679c-0.747,0 -1.359,-0.603 -1.359,-1.341c0,-0.747 0.612,-1.35 1.359,-1.35c0.747,-0 1.35,0.603 1.35,1.35c-0,0.738 -0.603,1.341 -1.35,1.341Z" style="fill:#a9a3b2;fill-rule:nonzero;"/><path d="M458.154,129.286c-0.666,0 -1.197,-0.531 -1.197,-1.188c0,-0.648 0.531,-1.179 1.197,-1.179c0.657,0 1.197,0.531 1.197,1.179c0,0.657 -0.54,1.188 -1.197,1.188Z" style="fill:#a9a3b2;fill-rule:nonzero;"/><path d="M531.657,65.665c-0.477,-0 -0.855,-0.387 -0.855,-0.855c0,-0.477 0.378,-0.855 0.855,-0.855c0.477,0 0.864,0.378 0.864,0.855c-0,0.468 -0.387,0.855 -0.864,0.855Z" style="fill:#a9a3b2;fill-rule:nonzero;"/><path d="M498.726,152.137c-0.522,-0 -0.945,-0.423 -0.945,-0.945c0,-0.522 0.423,-0.945 0.945,-0.945c0.531,0 0.954,0.423 0.954,0.945c-0,0.522 -0.423,0.945 -0.954,0.945Z" style="fill:#a9a3b2;fill-rule:nonzero;"/><path d="M504.027,199.369c-0.864,-0 -1.566,-0.693 -1.566,-1.548c-0,-0.855 0.702,-1.548 1.566,-1.548c0.864,0 1.566,0.693 1.566,1.548c-0,0.855 -0.702,1.548 -1.566,1.548Z" style="fill:#a9a3b2;fill-rule:nonzero;"/><path d="M552.456,191.359c-0.666,0 -1.215,-0.54 -1.215,-1.215c0,-0.666 0.549,-1.206 1.215,-1.206c0.675,-0 1.224,0.54 1.224,1.206c-0,0.675 -0.549,1.215 -1.224,1.215Z" style="fill:#a9a3b2;fill-rule:nonzero;"/><path d="M491.994,229.528c-0.423,-0 -0.765,-0.333 -0.765,-0.756c0,-0.423 0.342,-0.765 0.765,-0.765c0.423,-0 0.765,0.342 0.765,0.765c0,0.423 -0.342,0.756 -0.765,0.756Z" style="fill:#a9a3b2;fill-rule:nonzero;"/><path d="M607.851,218.809c-0.999,-0 -1.809,-0.81 -1.809,-1.8c-0,-0.999 0.81,-1.809 1.809,-1.809c1.008,-0 1.818,0.81 1.818,1.809c0,0.99 -0.81,1.8 -1.818,1.8Z" style="fill:#a9a3b2;fill-rule:nonzero;"/><path d="M529.794,233.551c-0.603,-0 -1.098,-0.495 -1.098,-1.098c-0,-0.603 0.495,-1.089 1.098,-1.089c0.612,-0 1.107,0.486 1.107,1.089c0,0.603 -0.495,1.098 -1.107,1.098Z" style="fill:#a9a3b2;fill-rule:nonzero;"/><path d="M612.396,230.554c-0.486,-0 -0.882,-0.387 -0.882,-0.873c-0,-0.486 0.396,-0.873 0.882,-0.873c0.486,-0 0.882,0.387 0.882,0.873c0,0.486 -0.396,0.873 -0.882,0.873Z" style="fill:#a9a3b2;fill-rule:nonzero;"/><path d="M551.556,126.415c-0.495,-0 -0.891,-0.396 -0.891,-0.882c-0,-0.495 0.396,-0.891 0.891,-0.891c0.495,-0 0.891,0.396 0.891,0.891c0,0.486 -0.396,0.882 -0.891,0.882Z" style="fill:#a9a3b2;fill-rule:nonzero;"/><path d="M630.342,278.794c-0.639,0 -1.161,-0.513 -1.161,-1.152c0,-0.639 0.522,-1.152 1.161,-1.152c0.648,-0 1.17,0.513 1.17,1.152c0,0.639 -0.522,1.152 -1.17,1.152Z" style="fill:#a9a3b2;fill-rule:nonzero;"/><path d="M592.38,263.107c-0.675,-0 -1.224,-0.54 -1.224,-1.215c0,-0.666 0.549,-1.215 1.224,-1.215c0.675,0 1.224,0.549 1.224,1.215c0,0.675 -0.549,1.215 -1.224,1.215Z" style="fill:#a9a3b2;fill-rule:nonzero;"/><path d="M574.668,224.137c-0.828,-0 -1.503,-0.675 -1.503,-1.494c-0,-0.828 0.675,-1.494 1.503,-1.494c0.837,-0 1.503,0.666 1.503,1.494c0,0.819 -0.666,1.494 -1.503,1.494Z" style="fill:#a9a3b2;fill-rule:nonzero;"/><path d="M554.49,285.535c-1.053,0 -1.908,-0.846 -1.908,-1.899c-0,-1.044 0.855,-1.89 1.908,-1.89c1.053,0 1.917,0.846 1.917,1.89c-0,1.053 -0.864,1.899 -1.917,1.899Z" style="fill:#a9a3b2;fill-rule:nonzero;"/><path d="M481.626,172.873c-0.54,-0 -0.99,-0.441 -0.99,-0.981c-0,-0.54 0.45,-0.981 0.99,-0.981c0.549,-0 0.99,0.441 0.99,0.981c-0,0.54 -0.441,0.981 -0.99,0.981Z" style="fill:#a9a3b2;fill-rule:nonzero;"/><path d="M489.366,148.177c-0.765,0 -1.377,-0.603 -1.377,-1.359c0,-0.756 0.612,-1.359 1.377,-1.359c0.756,-0 1.377,0.603 1.377,1.359c0,0.756 -0.621,1.359 -1.377,1.359Z" style="fill:#a9a3b2;fill-rule:nonzero;"/><path d="M468.756,301.735c-0.45,-0 -0.81,-0.36 -0.81,-0.801c0,-0.45 0.36,-0.81 0.81,-0.81c0.45,-0 0.81,0.36 0.81,0.81c0,0.441 -0.36,0.801 -0.81,0.801Z" style="fill:#a9a3b2;fill-rule:nonzero;"/><path d="M570.06,265.825c-0.549,-0 -0.99,-0.432 -0.99,-0.972c0,-0.54 0.441,-0.981 0.99,-0.981c0.54,0 0.981,0.441 0.981,0.981c0,0.54 -0.441,0.972 -0.981,0.972Z" style="fill:#a9a3b2;fill-rule:nonzero;"/><path d="M648.927,158.131c-0.504,-0 -0.909,-0.405 -0.909,-0.909c0,-0.495 0.405,-0.9 0.909,-0.9c0.504,-0 0.909,0.405 0.909,0.9c-0,0.504 -0.405,0.909 -0.909,0.909Z" style="fill:#a9a3b2;fill-rule:nonzero;"/><path d="M651.906,85.393c-0.756,0 -1.368,-0.603 -1.368,-1.35c0,-0.756 0.612,-1.359 1.368,-1.359c0.756,0 1.359,0.603 1.359,1.359c0,0.747 -0.603,1.35 -1.359,1.35Z" style="fill:#a9a3b2;fill-rule:nonzero;"/><path d="M575.541,113.23c-0.666,-0 -1.206,-0.54 -1.206,-1.197c0,-0.666 0.54,-1.197 1.206,-1.197c0.666,0 1.206,0.531 1.206,1.197c0,0.657 -0.54,1.197 -1.206,1.197Z" style="fill:#a9a3b2;fill-rule:nonzero;"/><path d="M594.972,88.804c-0.54,0 -0.972,-0.432 -0.972,-0.963c0,-0.531 0.432,-0.963 0.972,-0.963c0.54,-0 0.972,0.432 0.972,0.963c-0,0.531 -0.432,0.963 -0.972,0.963Z" style="fill:#a9a3b2;fill-rule:nonzero;"/><path d="M525.438,103.78c-0.882,-0 -1.602,-0.711 -1.602,-1.593c-0,-0.882 0.72,-1.593 1.602,-1.593c0.891,-0 1.611,0.711 1.611,1.593c0,0.882 -0.72,1.593 -1.611,1.593Z" style="fill:#a9a3b2;fill-rule:nonzero;"/><path d="M543.069,63.424c-0.504,0 -0.918,-0.414 -0.918,-0.918c0,-0.504 0.414,-0.909 0.918,-0.909c0.513,-0 0.927,0.405 0.927,0.909c-0,0.504 -0.414,0.918 -0.927,0.918Z" style="fill:#a9a3b2;fill-rule:nonzero;"/><path d="M553.068,35.128c-0.639,-0 -1.17,-0.522 -1.17,-1.161c0,-0.639 0.531,-1.161 1.17,-1.161c0.648,-0 1.17,0.522 1.17,1.161c-0,0.639 -0.522,1.161 -1.17,1.161Z" style="fill:#a9a3b2;fill-rule:nonzero;"/><path d="M509.022,41.995c-0.72,0 -1.305,-0.576 -1.305,-1.296c0,-0.72 0.585,-1.296 1.305,-1.296c0.729,0 1.314,0.576 1.314,1.296c-0,0.72 -0.585,1.296 -1.314,1.296Z" style="fill:#a9a3b2;fill-rule:nonzero;"/><path d="M632.601,208.189c-0.621,0 -1.125,-0.504 -1.125,-1.125c0,-0.612 0.504,-1.116 1.125,-1.116c0.63,0 1.134,0.504 1.134,1.116c-0,0.621 -0.504,1.125 -1.134,1.125Z" style="fill:#a9a3b2;fill-rule:nonzero;"/><path d="M248.661,304.759c-0.405,0 -0.738,-0.324 -0.738,-0.729c0,-0.396 0.333,-0.729 0.738,-0.729c0.405,-0 0.729,0.333 0.729,0.729c-0,0.405 -0.324,0.729 -0.729,0.729Z" style="fill:#b9bac3;fill-rule:nonzero;"/><path d="M215.1,342.793c-0.621,0 -1.125,-0.504 -1.125,-1.125c0,-0.612 0.504,-1.116 1.125,-1.116c0.63,0 1.134,0.504 1.134,1.116c-0,0.621 -0.504,1.125 -1.134,1.125Z" style="fill:#b9bac3;fill-rule:nonzero;"/><path d="M189.531,303.661c-0.531,-0 -0.972,-0.432 -0.972,-0.963c0,-0.531 0.441,-0.963 0.972,-0.963c0.54,-0 0.972,0.432 0.972,0.963c0,0.531 -0.432,0.963 -0.972,0.963Z" style="fill:#a9a3b2;fill-rule:nonzero;"/><path d="M229.563,265.816c-0.675,0 -1.215,-0.54 -1.215,-1.206c0,-0.666 0.54,-1.206 1.215,-1.206c0.675,-0 1.215,0.54 1.215,1.206c-0,0.666 -0.54,1.206 -1.215,1.206Z" style="fill:#a9a3b2;fill-rule:nonzero;"/><path d="M284.958,293.266c-0.999,-0 -1.818,-0.81 -1.818,-1.8c0,-0.999 0.819,-1.8 1.818,-1.8c1.008,-0 1.818,0.801 1.818,1.8c0,0.99 -0.81,1.8 -1.818,1.8Z" style="fill:#b9bac3;fill-rule:nonzero;"/><path d="M206.309,307.832c-0.304,-0.196 -0.506,-0.537 -0.506,-0.922c-0,-0.594 0.495,-1.089 1.098,-1.089c0.612,-0 1.098,0.495 1.098,1.089c-0,0.035 -0.002,0.07 -0.005,0.104c-0.561,0.271 -1.126,0.545 -1.685,0.818Z" style="fill:#a9a3b2;fill-rule:nonzero;"/><path d="M206.901,308.008c-0.218,0 -0.421,-0.065 -0.592,-0.176c0.559,-0.273 1.124,-0.547 1.685,-0.818c-0.052,0.555 -0.517,0.994 -1.093,0.994Z" style="fill:#b9bac3;fill-rule:nonzero;"/><path d="M289.503,305.02c-0.495,-0 -0.891,-0.396 -0.891,-0.882c-0,-0.486 0.396,-0.873 0.891,-0.873c0.486,-0 0.882,0.387 0.882,0.873c0,0.486 -0.396,0.882 -0.882,0.882Z" style="fill:#b9bac3;fill-rule:nonzero;"/><path d="M307.449,353.26c-0.648,0 -1.161,-0.522 -1.161,-1.161c-0,-0.639 0.513,-1.152 1.161,-1.152c0.639,-0 1.161,0.513 1.161,1.152c-0,0.639 -0.522,1.161 -1.161,1.161Z" style="fill:#cfd4d6;fill-rule:nonzero;"/><path d="M269.478,337.564c-0.675,0 -1.215,-0.54 -1.215,-1.215c0,-0.666 0.54,-1.206 1.215,-1.206c0.684,0 1.224,0.54 1.224,1.206c-0,0.675 -0.54,1.215 -1.224,1.215Z" style="fill:#cfd4d6;fill-rule:nonzero;"/><path d="M251.775,298.594c-0.828,-0 -1.503,-0.675 -1.503,-1.494c0,-0.828 0.675,-1.494 1.503,-1.494c0.828,-0 1.503,0.666 1.503,1.494c-0,0.819 -0.675,1.494 -1.503,1.494Z" style="fill:#b9bac3;fill-rule:nonzero;"/><path d="M231.597,359.992c-1.062,0 -1.917,-0.846 -1.917,-1.899c-0,-1.044 0.855,-1.89 1.917,-1.89c1.053,0 1.908,0.846 1.908,1.89c0,1.053 -0.855,1.899 -1.908,1.899Z" style="fill:#cfd4d6;fill-rule:nonzero;"/><path d="M247.158,340.282c-0.54,-0 -0.981,-0.432 -0.981,-0.972c0,-0.54 0.441,-0.981 0.981,-0.981c0.549,0 0.99,0.441 0.99,0.981c-0,0.54 -0.441,0.972 -0.99,0.972Z" style="fill:#b9bac3;fill-rule:nonzero;"/><path d="M309.708,282.646c-0.621,0 -1.125,-0.504 -1.125,-1.125c0,-0.612 0.504,-1.116 1.125,-1.116c0.63,0 1.134,0.504 1.134,1.116c0,0.621 -0.504,1.125 -1.134,1.125Z" style="fill:#b9bac3;fill-rule:nonzero;"/><path d="M451.017,43.552c-0.639,0 -1.161,-0.513 -1.161,-1.152c-0,-0.63 0.522,-1.143 1.161,-1.143c0.648,0 1.161,0.513 1.161,1.143c0,0.639 -0.513,1.152 -1.161,1.152Z" style="fill:#a9a3b2;fill-rule:nonzero;"/><path d="M472.356,156.421c-0.738,-0 -1.341,-0.594 -1.341,-1.323c0,-0.738 0.603,-1.332 1.341,-1.332c0.747,-0 1.35,0.594 1.35,1.332c-0,0.729 -0.603,1.323 -1.35,1.323Z" style="fill:#a9a3b2;fill-rule:nonzero;"/><path d="M414.342,46.585c-0.729,0 -1.323,-0.585 -1.323,-1.305c0,-0.729 0.594,-1.314 1.323,-1.314c0.729,0 1.323,0.585 1.323,1.314c0,0.72 -0.594,1.305 -1.323,1.305Z" style="fill:#a9a3b2;fill-rule:nonzero;"/><path d="M428.229,59.896c-0.648,0 -1.17,-0.513 -1.17,-1.152c-0,-0.639 0.522,-1.161 1.17,-1.161c0.648,0 1.17,0.522 1.17,1.161c-0,0.639 -0.522,1.152 -1.17,1.152Z" style="fill:#a9a3b2;fill-rule:nonzero;"/><path d="M356.85,96.4c-0.594,0 -1.08,-0.486 -1.08,-1.08c-0,-0.594 0.486,-1.071 1.08,-1.071c0.603,0 1.089,0.477 1.089,1.071c-0,0.594 -0.486,1.08 -1.089,1.08Z" style="fill:#a9a3b2;fill-rule:nonzero;"/><path d="M333.378,43.228c-0.513,-0 -0.936,-0.414 -0.936,-0.927c-0,-0.513 0.423,-0.927 0.936,-0.927c0.522,0 0.936,0.414 0.936,0.927c-0,0.513 -0.414,0.927 -0.936,0.927Z" style="fill:#a9a3b2;fill-rule:nonzero;"/><path d="M293.193,18.361c-0.882,0 -1.602,-0.711 -1.602,-1.584c0,-0.882 0.72,-1.593 1.602,-1.593c0.891,0 1.611,0.711 1.611,1.593c-0,0.873 -0.72,1.584 -1.611,1.584Z" style="fill:#a9a3b2;fill-rule:nonzero;"/><path d="M285.066,93.394c-0.756,-0 -1.377,-0.612 -1.377,-1.368c-0,-0.756 0.621,-1.368 1.377,-1.368c0.765,0 1.386,0.612 1.386,1.368c-0,0.756 -0.621,1.368 -1.386,1.368Z" style="fill:#a9a3b2;fill-rule:nonzero;"/><path d="M263.358,52.534c-0.846,0 -1.53,-0.684 -1.53,-1.521c0,-0.837 0.684,-1.521 1.53,-1.521c0.846,0 1.53,0.684 1.53,1.521c0,0.837 -0.684,1.521 -1.53,1.521Z" style="fill:#a9a3b2;fill-rule:nonzero;"/><path d="M295.479,86.644c-0.81,-0 -1.467,-0.648 -1.467,-1.449c-0,-0.801 0.657,-1.449 1.467,-1.449c0.81,-0 1.458,0.648 1.458,1.449c0,0.801 -0.648,1.449 -1.458,1.449Z" style="fill:#a9a3b2;fill-rule:nonzero;"/><path d="M628.263,421.408c-0.63,-0 -1.152,-0.504 -1.152,-1.143c0,-0.63 0.522,-1.143 1.152,-1.143c0.639,-0 1.152,0.513 1.152,1.143c-0,0.639 -0.513,1.143 -1.152,1.143Z" style="fill:#a9a3b2;fill-rule:nonzero;"/><path d="M601.146,456.805c-0.675,-0 -1.215,-0.54 -1.215,-1.206c0,-0.675 0.54,-1.214 1.215,-1.214c0.675,-0 1.224,0.539 1.224,1.214c-0,0.666 -0.549,1.206 -1.224,1.206Z" style="fill:#a9a3b2;fill-rule:nonzero;"/><path d="M594.315,407.368c-0.792,0 -1.431,-0.63 -1.431,-1.413c-0,-0.792 0.639,-1.422 1.431,-1.422c0.792,-0 1.431,0.63 1.431,1.422c-0,0.783 -0.639,1.413 -1.431,1.413Z" style="fill:#a9a3b2;fill-rule:nonzero;"/><path d="M571.554,520.012c-0.405,-0 -0.738,-0.333 -0.738,-0.729c-0,-0.405 0.333,-0.729 0.738,-0.729c0.405,0 0.738,0.324 0.738,0.729c-0,0.396 -0.333,0.729 -0.738,0.729Z" style="fill:#b9bac3;fill-rule:nonzero;"/><path d="M538.002,558.037c-0.63,-0 -1.134,-0.504 -1.134,-1.125c-0,-0.612 0.504,-1.116 1.134,-1.116c0.621,0 1.125,0.504 1.125,1.116c0,0.621 -0.504,1.125 -1.125,1.125Z" style="fill:#cfd4d6;fill-rule:nonzero;"/><path d="M512.432,518.905c-0.539,0 -0.971,-0.423 -0.971,-0.963c-0,-0.531 0.432,-0.963 0.971,-0.963c0.532,-0 0.973,0.432 0.973,0.963c0,0.54 -0.441,0.963 -0.973,0.963Z" style="fill:#cfd4d6;fill-rule:nonzero;"/><path d="M497.088,402.841c-0.45,0 -0.819,-0.36 -0.819,-0.81c0,-0.45 0.369,-0.81 0.819,-0.81c0.45,0 0.819,0.36 0.819,0.81c0,0.45 -0.369,0.81 -0.819,0.81Z" style="fill:#cfd4d6;fill-rule:nonzero;"/><path d="M491.004,456.607c-0.954,-0 -1.728,-0.774 -1.728,-1.719c0,-0.954 0.774,-1.719 1.728,-1.719c0.963,-0 1.737,0.765 1.737,1.719c-0,0.945 -0.774,1.719 -1.737,1.719Z" style="fill:#cfd4d6;fill-rule:nonzero;"/><path d="M459.135,480.511c-0.504,0 -0.909,-0.396 -0.909,-0.891c0,-0.495 0.405,-0.891 0.909,-0.891c0.495,-0 0.9,0.396 0.9,0.891c0,0.495 -0.405,0.891 -0.9,0.891Z" style="fill:#cfd4d6;fill-rule:nonzero;"/><path d="M448.623,473.374c-0.414,-0 -0.756,-0.342 -0.756,-0.747c0,-0.414 0.342,-0.747 0.756,-0.747c0.414,-0 0.756,0.333 0.756,0.747c-0,0.405 -0.342,0.747 -0.756,0.747Z" style="fill:#cfd4d6;fill-rule:nonzero;"/><path d="M440.901,484.264c-0.747,-0 -1.341,-0.594 -1.341,-1.323c-0,-0.738 0.594,-1.332 1.341,-1.332c0.738,-0 1.332,0.594 1.332,1.332c0,0.729 -0.594,1.323 -1.332,1.323Z" style="fill:#cfd4d6;fill-rule:nonzero;"/><path d="M427.365,472.888c-0.594,0 -1.089,-0.486 -1.089,-1.08c0,-0.594 0.495,-1.08 1.089,-1.08c0.603,0 1.089,0.486 1.089,1.08c0,0.594 -0.486,1.08 -1.089,1.08Z" style="fill:#cfd4d6;fill-rule:nonzero;"/><path d="M406.404,540.361c-0.873,-0 -1.575,-0.693 -1.575,-1.548c0,-0.864 0.702,-1.557 1.575,-1.557c0.864,0 1.566,0.693 1.566,1.557c0,0.855 -0.702,1.548 -1.566,1.548Z" style="fill:#cfd4d6;fill-rule:nonzero;"/><path d="M380.565,500.68c-0.567,-0 -1.026,-0.459 -1.026,-1.017c0,-0.558 0.459,-1.008 1.026,-1.008c0.558,0 1.017,0.45 1.017,1.008c0,0.558 -0.459,1.017 -1.017,1.017Z" style="fill:#cfd4d6;fill-rule:nonzero;"/><path d="M340.533,581.581c-0.783,-0 -1.422,-0.63 -1.422,-1.404c-0,-0.783 0.639,-1.413 1.422,-1.413c0.783,-0 1.422,0.63 1.422,1.413c-0,0.774 -0.639,1.404 -1.422,1.404Z" style="fill:#cfd4d6;fill-rule:nonzero;"/><path d="M335.385,535.573c-1.071,0 -1.944,-0.855 -1.944,-1.926c0,-1.062 0.873,-1.926 1.944,-1.926c1.071,-0 1.944,0.864 1.944,1.926c0,1.071 -0.873,1.926 -1.944,1.926Z" style="fill:#cfd4d6;fill-rule:nonzero;"/><path d="M318.429,529.462c-0.828,-0 -1.494,-0.666 -1.494,-1.485c-0,-0.819 0.666,-1.485 1.494,-1.485c0.828,-0 1.494,0.666 1.494,1.485c0,0.819 -0.666,1.485 -1.494,1.485Z" style="fill:#cfd4d6;fill-rule:nonzero;"/><path d="M318.006,460.045c-0.423,0 -0.774,-0.342 -0.774,-0.764c-0,-0.433 0.351,-0.774 0.774,-0.774c0.432,-0 0.783,0.341 0.783,0.774c0,0.422 -0.351,0.764 -0.783,0.764Z" style="fill:#cfd4d6;fill-rule:nonzero;"/><path d="M290.664,515.143c-1.035,-0 -1.881,-0.837 -1.881,-1.863c-0,-1.035 0.846,-1.872 1.881,-1.872c1.035,-0 1.881,0.837 1.881,1.872c0,1.026 -0.846,1.863 -1.881,1.863Z" style="fill:#cfd4d6;fill-rule:nonzero;"/><path d="M334.377,521.911c-0.954,0 -1.719,-0.765 -1.719,-1.71c-0,-0.936 0.765,-1.701 1.719,-1.701c0.954,0 1.719,0.765 1.719,1.701c0,0.945 -0.765,1.71 -1.719,1.71Z" style="fill:#cfd4d6;fill-rule:nonzero;"/><path d="M378.576,573.022c-0.936,0 -1.692,-0.747 -1.692,-1.674c0,-0.918 0.756,-1.665 1.692,-1.665c0.927,0 1.683,0.747 1.683,1.665c0,0.927 -0.756,1.674 -1.683,1.674Z" style="fill:#cfd4d6;fill-rule:nonzero;"/><path d="M285.975,456.886c-0.918,0 -1.674,-0.746 -1.674,-1.655c-0,-0.919 0.756,-1.666 1.674,-1.666c0.927,0 1.674,0.747 1.674,1.666c-0,0.909 -0.747,1.655 -1.674,1.655Z" style="fill:#cfd4d6;fill-rule:nonzero;"/><path d="M341.406,521.362c-0.711,0 -1.287,-0.567 -1.287,-1.269c-0,-0.702 0.576,-1.269 1.287,-1.269c0.711,-0 1.278,0.567 1.278,1.269c-0,0.702 -0.567,1.269 -1.278,1.269Z" style="fill:#cfd4d6;fill-rule:nonzero;"/><path d="M354.051,562.195c-0.756,-0 -1.368,-0.603 -1.368,-1.359c0,-0.747 0.612,-1.35 1.368,-1.35c0.756,-0 1.368,0.603 1.368,1.35c0,0.756 -0.612,1.359 -1.368,1.359Z" style="fill:#cfd4d6;fill-rule:nonzero;"/><path d="M396.972,510.742c-0.468,-0 -0.837,-0.378 -0.837,-0.828c0,-0.459 0.369,-0.837 0.837,-0.837c0.459,0 0.837,0.378 0.837,0.837c-0,0.45 -0.378,0.828 -0.837,0.828Z" style="fill:#cfd4d6;fill-rule:nonzero;"/><path d="M437.697,538.408c-0.45,0 -0.819,-0.36 -0.819,-0.81c-0,-0.45 0.369,-0.81 0.819,-0.81c0.45,-0 0.819,0.36 0.819,0.81c-0,0.45 -0.369,0.81 -0.819,0.81Z" style="fill:#cfd4d6;fill-rule:nonzero;"/><path d="M434.25,509.689c-0.837,0 -1.503,-0.666 -1.503,-1.494c0,-0.819 0.666,-1.485 1.503,-1.485c0.828,-0 1.503,0.666 1.503,1.485c-0,0.828 -0.675,1.494 -1.503,1.494Z" style="fill:#cfd4d6;fill-rule:nonzero;"/><path d="M373.356,394.516c-1.053,-0 -1.908,-0.855 -1.908,-1.899c-0,-1.044 0.855,-1.89 1.908,-1.89c1.053,-0 1.908,0.846 1.908,1.89c0,1.044 -0.855,1.899 -1.908,1.899Z" style="fill:#cfd4d6;fill-rule:nonzero;"/><path d="M420.498,401.581c-0.648,-0 -1.17,-0.513 -1.17,-1.152c0,-0.639 0.522,-1.161 1.17,-1.161c0.639,0 1.161,0.522 1.161,1.161c-0,0.639 -0.522,1.152 -1.161,1.152Z" style="fill:#cfd4d6;fill-rule:nonzero;"/><path d="M444.825,400.708c-0.495,0 -0.9,-0.396 -0.9,-0.891c-0,-0.486 0.405,-0.882 0.9,-0.882c0.495,0 0.891,0.396 0.891,0.882c0,0.495 -0.396,0.891 -0.891,0.891Z" style="fill:#cfd4d6;fill-rule:nonzero;"/><path d="M480.438,403.543c-0.792,0 -1.431,-0.63 -1.431,-1.413c-0,-0.783 0.639,-1.413 1.431,-1.413c0.783,-0 1.422,0.63 1.422,1.413c-0,0.783 -0.639,1.413 -1.422,1.413Z" style="fill:#cfd4d6;fill-rule:nonzero;"/><path d="M566.262,449.443c-0.99,-0 -1.8,-0.801 -1.8,-1.782c-0,-0.99 0.81,-1.782 1.8,-1.782c0.99,0 1.8,0.792 1.8,1.782c0,0.981 -0.81,1.782 -1.8,1.782Z" style="fill:#b9bac3;fill-rule:nonzero;"/><path d="M559.683,429.724c-0.738,0 -1.341,-0.594 -1.341,-1.323c-0,-0.738 0.603,-1.332 1.341,-1.332c0.738,0 1.341,0.594 1.341,1.332c-0,0.729 -0.603,1.323 -1.341,1.323Z" style="fill:#b9bac3;fill-rule:nonzero;"/><path d="M520.091,361.486c-1.007,-0 -1.826,-0.819 -1.826,-1.818c0,-1.008 0.819,-1.818 1.826,-1.818c1.018,0 1.836,0.81 1.836,1.818c0,0.999 -0.818,1.818 -1.836,1.818Z" style="fill:#b9bac3;fill-rule:nonzero;"/><path d="M505.062,314.38c-0.747,0 -1.359,-0.603 -1.359,-1.341c0,-0.738 0.612,-1.341 1.359,-1.341c0.747,0 1.35,0.603 1.35,1.341c-0,0.738 -0.603,1.341 -1.35,1.341Z" style="fill:#a9a3b2;fill-rule:nonzero;"/><path d="M458.154,418.996c-0.666,0 -1.197,-0.531 -1.197,-1.188c0,-0.657 0.531,-1.188 1.197,-1.188c0.657,-0 1.197,0.531 1.197,1.188c0,0.657 -0.54,1.188 -1.197,1.188Z" style="fill:#cfd4d6;fill-rule:nonzero;"/><path d="M450.486,450.622c-0.522,-0 -0.945,-0.422 -0.945,-0.936c-0,-0.522 0.423,-0.936 0.945,-0.936c0.522,0 0.945,0.414 0.945,0.936c-0,0.514 -0.423,0.936 -0.945,0.936Z" style="fill:#cfd4d6;fill-rule:nonzero;"/><path d="M498.726,441.838c-0.522,0 -0.945,-0.423 -0.945,-0.945c0,-0.522 0.423,-0.945 0.945,-0.945c0.531,0 0.954,0.423 0.954,0.945c-0,0.522 -0.423,0.945 -0.954,0.945Z" style="fill:#cfd4d6;fill-rule:nonzero;"/><path d="M469.197,487.54c-0.558,-0 -1.008,-0.441 -1.008,-0.99c-0,-0.549 0.45,-0.999 1.008,-0.999c0.549,-0 0.999,0.45 0.999,0.999c0,0.549 -0.45,0.99 -0.999,0.99Z" style="fill:#cfd4d6;fill-rule:nonzero;"/><path d="M504.027,489.07c-0.864,-0 -1.566,-0.693 -1.566,-1.548c-0,-0.855 0.702,-1.548 1.566,-1.548c0.864,0 1.566,0.693 1.566,1.548c-0,0.855 -0.702,1.548 -1.566,1.548Z" style="fill:#cfd4d6;fill-rule:nonzero;"/><path d="M552.456,481.06c-0.666,0 -1.215,-0.54 -1.215,-1.206c0,-0.666 0.549,-1.206 1.215,-1.206c0.675,-0 1.224,0.54 1.224,1.206c-0,0.666 -0.549,1.206 -1.224,1.206Z" style="fill:#b9bac3;fill-rule:nonzero;"/><path d="M491.994,519.238c-0.423,-0 -0.765,-0.342 -0.765,-0.765c0,-0.423 0.342,-0.765 0.765,-0.765c0.423,-0 0.765,0.342 0.765,0.765c0,0.423 -0.342,0.765 -0.765,0.765Z" style="fill:#cfd4d6;fill-rule:nonzero;"/><path d="M607.851,508.51c-0.368,-0 -0.71,-0.11 -0.995,-0.298c-0.161,-0.846 -0.324,-1.686 -0.492,-2.53c0.327,-0.467 0.871,-0.772 1.487,-0.772c1.008,-0 1.818,0.801 1.818,1.8c0,0.99 -0.81,1.8 -1.818,1.8Z" style="fill:#a9a3b2;fill-rule:nonzero;"/><path d="M606.856,508.212c-0.49,-0.323 -0.814,-0.876 -0.814,-1.502c-0,-0.383 0.119,-0.737 0.322,-1.028c0.168,0.844 0.331,1.684 0.492,2.53Z" style="fill:#b9bac3;fill-rule:nonzero;"/><path d="M529.794,523.252c-0.603,0 -1.098,-0.486 -1.098,-1.089c-0,-0.603 0.495,-1.098 1.098,-1.098c0.612,0 1.107,0.495 1.107,1.098c0,0.603 -0.495,1.089 -1.107,1.089Z" style="fill:#cfd4d6;fill-rule:nonzero;"/><path d="M612.396,520.264c-0.486,-0 -0.882,-0.396 -0.882,-0.882c-0,-0.477 0.396,-0.873 0.882,-0.873c0.486,0 0.882,0.396 0.882,0.873c0,0.486 -0.396,0.882 -0.882,0.882Z" style="fill:#a9a3b2;fill-rule:nonzero;"/><path d="M551.556,416.116c-0.495,0 -0.891,-0.396 -0.891,-0.882c-0,-0.486 0.396,-0.882 0.891,-0.882c0.495,-0 0.891,0.396 0.891,0.882c0,0.486 -0.396,0.882 -0.891,0.882Z" style="fill:#b9bac3;fill-rule:nonzero;"/><path d="M630.342,568.504c-0.639,0 -1.161,-0.522 -1.161,-1.161c0,-0.63 0.522,-1.152 1.161,-1.152c0.648,-0 1.17,0.522 1.17,1.152c0,0.639 -0.522,1.161 -1.17,1.161Z" style="fill:#a9a3b2;fill-rule:nonzero;"/><path d="M592.38,552.808c-0.675,0 -1.224,-0.54 -1.224,-1.206c0,-0.675 0.549,-1.215 1.224,-1.215c0.675,-0 1.224,0.54 1.224,1.215c0,0.666 -0.549,1.206 -1.224,1.206Z" style="fill:#b9bac3;fill-rule:nonzero;"/><path d="M574.668,513.838c-0.828,0 -1.503,-0.666 -1.503,-1.494c-0,-0.819 0.675,-1.494 1.503,-1.494c0.837,-0 1.503,0.675 1.503,1.494c0,0.828 -0.666,1.494 -1.503,1.494Z" style="fill:#b9bac3;fill-rule:nonzero;"/><path d="M562.419,500.824c-0.981,-0 -1.782,-0.792 -1.782,-1.764c0,-0.981 0.801,-1.764 1.782,-1.764c0.981,-0 1.782,0.783 1.782,1.764c-0,0.972 -0.801,1.764 -1.782,1.764Z" style="fill:#b9bac3;fill-rule:nonzero;"/><path d="M554.49,575.236c-1.053,-0 -1.908,-0.846 -1.908,-1.89c-0,-1.053 0.855,-1.899 1.908,-1.899c1.053,0 1.917,0.846 1.917,1.899c-0,1.044 -0.864,1.89 -1.917,1.89Z" style="fill:#cfd4d6;fill-rule:nonzero;"/><path d="M536.742,485.803c-0.882,-0 -1.602,-0.711 -1.602,-1.593c0,-0.873 0.72,-1.584 1.602,-1.584c0.891,-0 1.611,0.711 1.611,1.584c0,0.882 -0.72,1.593 -1.611,1.593Z" style="fill:#cfd4d6;fill-rule:nonzero;"/><path d="M525.231,544.33c-0.909,-0 -1.656,-0.729 -1.656,-1.638c0,-0.909 0.747,-1.647 1.656,-1.647c0.918,0 1.656,0.738 1.656,1.647c0,0.909 -0.738,1.638 -1.656,1.638Z" style="fill:#cfd4d6;fill-rule:nonzero;"/><path d="M488.196,567.262c-0.792,-0 -1.431,-0.63 -1.431,-1.413c0,-0.783 0.639,-1.422 1.431,-1.422c0.783,-0 1.422,0.639 1.422,1.422c0,0.783 -0.639,1.413 -1.422,1.413Z" style="fill:#cfd4d6;fill-rule:nonzero;"/><path d="M482.598,495.883c-0.702,0 -1.269,-0.558 -1.269,-1.251c0,-0.693 0.567,-1.26 1.269,-1.26c0.702,-0 1.269,0.567 1.269,1.26c0,0.693 -0.567,1.251 -1.269,1.251Z" style="fill:#cfd4d6;fill-rule:nonzero;"/><path d="M481.626,462.574c-0.54,-0 -0.99,-0.441 -0.99,-0.981c-0,-0.539 0.45,-0.981 0.99,-0.981c0.549,0 0.99,0.442 0.99,0.981c-0,0.54 -0.441,0.981 -0.99,0.981Z" style="fill:#cfd4d6;fill-rule:nonzero;"/><path d="M459.207,483.733c-0.675,0 -1.224,-0.54 -1.224,-1.206c0,-0.666 0.549,-1.215 1.224,-1.215c0.675,0 1.224,0.549 1.224,1.215c-0,0.666 -0.549,1.206 -1.224,1.206Z" style="fill:#cfd4d6;fill-rule:nonzero;"/><path d="M467.73,537.085c-0.432,-0 -0.774,-0.342 -0.774,-0.774c-0,-0.423 0.342,-0.774 0.774,-0.774c0.432,-0 0.783,0.351 0.783,0.774c0,0.432 -0.351,0.774 -0.783,0.774Z" style="fill:#cfd4d6;fill-rule:nonzero;"/><path d="M489.366,437.887c-0.765,-0 -1.377,-0.612 -1.377,-1.368c0,-0.747 0.612,-1.359 1.377,-1.359c0.756,-0 1.377,0.612 1.377,1.359c0,0.756 -0.621,1.368 -1.377,1.368Z" style="fill:#cfd4d6;fill-rule:nonzero;"/><path d="M284.634,559.495c-0.63,-0 -1.134,-0.504 -1.134,-1.125c0,-0.621 0.504,-1.125 1.134,-1.125c0.621,-0 1.134,0.504 1.134,1.125c0,0.621 -0.513,1.125 -1.134,1.125Z" style="fill:#cfd4d6;fill-rule:nonzero;"/><path d="M415.125,511.336c-0.828,0 -1.494,-0.666 -1.494,-1.485c0,-0.819 0.666,-1.485 1.494,-1.485c0.828,0 1.503,0.666 1.503,1.485c-0,0.819 -0.675,1.485 -1.503,1.485Z" style="fill:#cfd4d6;fill-rule:nonzero;"/><path d="M468.756,591.445c-0.45,-0 -0.81,-0.369 -0.81,-0.81c0,-0.45 0.36,-0.81 0.81,-0.81c0.45,0 0.81,0.36 0.81,0.81c0,0.441 -0.36,0.81 -0.81,0.81Z" style="fill:#cfd4d6;fill-rule:nonzero;"/><path d="M435.888,579.016c-0.54,0 -0.972,-0.432 -0.972,-0.972c-0,-0.54 0.432,-0.972 0.972,-0.972c0.54,0 0.981,0.432 0.981,0.972c-0,0.54 -0.441,0.972 -0.981,0.972Z" style="fill:#cfd4d6;fill-rule:nonzero;"/><path d="M431.523,587.701c-0.972,0 -1.764,-0.783 -1.764,-1.737c0,-0.963 0.792,-1.746 1.764,-1.746c0.972,-0 1.755,0.783 1.755,1.746c0,0.954 -0.783,1.737 -1.755,1.737Z" style="fill:#cfd4d6;fill-rule:nonzero;"/><path d="M426.483,584.929c-0.792,-0 -1.44,-0.63 -1.44,-1.422c-0,-0.783 0.648,-1.422 1.44,-1.422c0.792,-0 1.431,0.639 1.431,1.422c0,0.792 -0.639,1.422 -1.431,1.422Z" style="fill:#cfd4d6;fill-rule:nonzero;"/><path d="M570.06,555.535c-0.549,0 -0.99,-0.441 -0.99,-0.981c0,-0.54 0.441,-0.972 0.99,-0.972c0.54,-0 0.981,0.432 0.981,0.972c0,0.54 -0.441,0.981 -0.981,0.981Z" style="fill:#b9bac3;fill-rule:nonzero;"/><path d="M436.248,235.09c-0.405,0 -0.738,-0.324 -0.738,-0.729c0,-0.405 0.333,-0.729 0.738,-0.729c0.405,-0 0.729,0.324 0.729,0.729c-0,0.405 -0.324,0.729 -0.729,0.729Z" style="fill:#a9a3b2;fill-rule:nonzero;"/><path d="M402.696,273.115c-0.63,-0 -1.134,-0.504 -1.134,-1.116c0,-0.621 0.504,-1.125 1.134,-1.125c0.621,-0 1.125,0.504 1.125,1.125c0,0.612 -0.504,1.116 -1.125,1.116Z" style="fill:#a9a3b2;fill-rule:nonzero;"/><path d="M472.545,223.588c-0.999,-0 -1.818,-0.801 -1.818,-1.8c-0,-0.99 0.819,-1.8 1.818,-1.8c1.008,0 1.818,0.81 1.818,1.8c0,0.999 -0.81,1.8 -1.818,1.8Z" style="fill:#a9a3b2;fill-rule:nonzero;"/><path d="M394.488,238.33c-0.603,-0 -1.098,-0.486 -1.098,-1.089c0,-0.603 0.495,-1.089 1.098,-1.089c0.612,0 1.098,0.486 1.098,1.089c-0,0.603 -0.486,1.089 -1.098,1.089Z" style="fill:#a9a3b2;fill-rule:nonzero;"/><path d="M477.09,235.342c-0.495,-0 -0.882,-0.396 -0.882,-0.873c0,-0.486 0.387,-0.882 0.882,-0.882c0.486,0 0.882,0.396 0.882,0.882c-0,0.477 -0.396,0.873 -0.882,0.873Z" style="fill:#a9a3b2;fill-rule:nonzero;"/><path d="M495.036,283.582c-0.639,0 -1.161,-0.513 -1.161,-1.152c0,-0.639 0.522,-1.161 1.161,-1.161c0.639,-0 1.161,0.522 1.161,1.161c-0,0.639 -0.522,1.152 -1.161,1.152Z" style="fill:#a9a3b2;fill-rule:nonzero;"/><path d="M457.074,267.895c-0.684,-0 -1.224,-0.549 -1.224,-1.215c0,-0.675 0.54,-1.215 1.224,-1.215c0.675,0 1.215,0.54 1.215,1.215c0,0.666 -0.54,1.215 -1.215,1.215Z" style="fill:#a9a3b2;fill-rule:nonzero;"/><path d="M439.362,228.916c-0.828,-0 -1.503,-0.666 -1.503,-1.494c0,-0.819 0.675,-1.485 1.503,-1.485c0.828,-0 1.503,0.666 1.503,1.485c-0,0.828 -0.675,1.494 -1.503,1.494Z" style="fill:#a9a3b2;fill-rule:nonzero;"/><path d="M427.113,215.902c-0.99,0 -1.782,-0.792 -1.782,-1.764c-0,-0.972 0.792,-1.764 1.782,-1.764c0.981,-0 1.773,0.792 1.773,1.764c-0,0.972 -0.792,1.764 -1.773,1.764Z" style="fill:#a9a3b2;fill-rule:nonzero;"/><path d="M419.184,290.314c-1.062,0 -1.917,-0.846 -1.917,-1.89c-0,-1.053 0.855,-1.899 1.917,-1.899c1.053,-0 1.908,0.846 1.908,1.899c0,1.044 -0.855,1.89 -1.908,1.89Z" style="fill:#a9a3b2;fill-rule:nonzero;"/><path d="M389.925,259.417c-0.909,-0 -1.656,-0.738 -1.656,-1.647c0,-0.909 0.747,-1.638 1.656,-1.638c0.918,-0 1.656,0.729 1.656,1.638c-0,0.909 -0.738,1.647 -1.656,1.647Z" style="fill:#a9a3b2;fill-rule:nonzero;"/><path d="M434.745,270.613c-0.54,0 -0.981,-0.441 -0.981,-0.981c0,-0.54 0.441,-0.972 0.981,-0.972c0.549,0 0.99,0.432 0.99,0.972c-0,0.54 -0.441,0.981 -0.99,0.981Z" style="fill:#a9a3b2;fill-rule:nonzero;"/><path d="M648.927,447.832c-0.504,0 -0.909,-0.405 -0.909,-0.9c0,-0.495 0.405,-0.9 0.909,-0.9c0.504,0 0.909,0.405 0.909,0.9c-0,0.495 -0.405,0.9 -0.909,0.9Z" style="fill:#a9a3b2;fill-rule:nonzero;"/><path d="M651.906,375.103c-0.756,0 -1.368,-0.612 -1.368,-1.359c0,-0.747 0.612,-1.359 1.368,-1.359c0.756,0 1.359,0.612 1.359,1.359c0,0.747 -0.603,1.359 -1.359,1.359Z" style="fill:#a9a3b2;fill-rule:nonzero;"/><path d="M575.541,402.931c-0.666,0 -1.206,-0.531 -1.206,-1.197c0,-0.657 0.54,-1.197 1.206,-1.197c0.666,-0 1.206,0.54 1.206,1.197c0,0.666 -0.54,1.197 -1.206,1.197Z" style="fill:#a9a3b2;fill-rule:nonzero;"/><path d="M402.696,366.481c-0.639,-0 -1.152,-0.513 -1.152,-1.143c0,-0.63 0.513,-1.143 1.152,-1.143c0.639,0 1.152,0.513 1.152,1.143c-0,0.63 -0.513,1.143 -1.152,1.143Z" style="fill:#cfd4d6;fill-rule:nonzero;"/><path d="M375.579,401.878c-0.675,-0 -1.224,-0.54 -1.224,-1.215c0,-0.666 0.549,-1.206 1.224,-1.206c0.675,0 1.215,0.54 1.215,1.206c0,0.675 -0.54,1.215 -1.215,1.215Z" style="fill:#cfd4d6;fill-rule:nonzero;"/><path d="M368.739,352.441c-0.792,0 -1.431,-0.639 -1.431,-1.422c0,-0.783 0.639,-1.413 1.431,-1.413c0.792,-0 1.431,0.63 1.431,1.413c0,0.783 -0.639,1.422 -1.431,1.422Z" style="fill:#cfd4d6;fill-rule:nonzero;"/><path d="M340.686,394.516c-0.99,-0 -1.791,-0.801 -1.791,-1.782c-0,-0.99 0.801,-1.782 1.791,-1.782c0.999,0 1.8,0.792 1.8,1.782c-0,0.981 -0.801,1.782 -1.8,1.782Z" style="fill:#cfd4d6;fill-rule:nonzero;"/><path d="M423.36,392.905c-0.504,0 -0.918,-0.405 -0.918,-0.9c-0,-0.504 0.414,-0.909 0.918,-0.909c0.495,0 0.909,0.405 0.909,0.909c0,0.495 -0.414,0.9 -0.909,0.9Z" style="fill:#cfd4d6;fill-rule:nonzero;"/><path d="M349.965,348.004c-0.666,0 -1.206,-0.54 -1.206,-1.197c0,-0.657 0.54,-1.197 1.206,-1.197c0.666,-0 1.206,0.54 1.206,1.197c-0,0.657 -0.54,1.197 -1.206,1.197Z" style="fill:#cfd4d6;fill-rule:nonzero;"/><path d="M594.972,378.514c-0.54,0 -0.972,-0.432 -0.972,-0.972c0,-0.531 0.432,-0.963 0.972,-0.963c0.54,0 0.972,0.432 0.972,0.963c-0,0.54 -0.432,0.972 -0.972,0.972Z" style="fill:#a9a3b2;fill-rule:nonzero;"/><path d="M525.438,393.481c-0.882,-0 -1.602,-0.711 -1.602,-1.593c-0,-0.873 0.72,-1.584 1.602,-1.584c0.891,-0 1.611,0.711 1.611,1.584c0,0.882 -0.72,1.593 -1.611,1.593Z" style="fill:#b9bac3;fill-rule:nonzero;"/><path d="M543.069,353.125c-0.504,0 -0.918,-0.405 -0.918,-0.909c0,-0.504 0.414,-0.918 0.918,-0.918c0.513,0 0.927,0.414 0.927,0.918c-0,0.504 -0.414,0.909 -0.927,0.909Z" style="fill:#a9a3b2;fill-rule:nonzero;"/><path d="M553.068,324.829c-0.639,0 -1.17,-0.522 -1.17,-1.161c0,-0.639 0.531,-1.161 1.17,-1.161c0.648,-0 1.17,0.522 1.17,1.161c-0,0.639 -0.522,1.161 -1.17,1.161Z" style="fill:#a9a3b2;fill-rule:nonzero;"/><path d="M509.022,331.696c-0.72,-0 -1.305,-0.576 -1.305,-1.296c0,-0.72 0.585,-1.296 1.305,-1.296c0.729,0 1.314,0.576 1.314,1.296c-0,0.72 -0.585,1.296 -1.314,1.296Z" style="fill:#a9a3b2;fill-rule:nonzero;"/><path d="M632.601,497.89c-0.621,0 -1.125,-0.504 -1.125,-1.116c0,-0.621 0.504,-1.125 1.125,-1.125c0.63,0 1.134,0.504 1.134,1.125c-0,0.612 -0.504,1.116 -1.134,1.116Z" style="fill:#a9a3b2;fill-rule:nonzero;"/><path d="M390.537,127.225c-0.63,-0 -1.152,-0.513 -1.152,-1.143c0,-0.63 0.522,-1.143 1.152,-1.143c0.639,-0 1.161,0.513 1.161,1.143c-0,0.63 -0.522,1.143 -1.161,1.143Z" style="fill:#a9a3b2;fill-rule:nonzero;"/><path d="M363.42,162.613c-0.666,0 -1.215,-0.54 -1.215,-1.206c-0,-0.666 0.549,-1.215 1.215,-1.215c0.675,-0 1.224,0.549 1.224,1.215c0,0.666 -0.549,1.206 -1.224,1.206Z" style="fill:#a9a3b2;fill-rule:nonzero;"/><path d="M356.589,113.176c-0.792,0 -1.431,-0.63 -1.431,-1.413c-0,-0.783 0.639,-1.422 1.431,-1.422c0.792,0 1.431,0.639 1.431,1.422c-0,0.783 -0.639,1.413 -1.431,1.413Z" style="fill:#a9a3b2;fill-rule:nonzero;"/><path d="M333.828,225.82c-0.405,0 -0.738,-0.324 -0.738,-0.729c-0,-0.405 0.333,-0.729 0.738,-0.729c0.405,0 0.738,0.324 0.738,0.729c0,0.405 -0.333,0.729 -0.738,0.729Z" style="fill:#a9a3b2;fill-rule:nonzero;"/><path d="M370.125,214.318c-0.999,-0 -1.809,-0.801 -1.809,-1.8c0,-0.99 0.81,-1.8 1.809,-1.8c1.008,-0 1.818,0.81 1.818,1.8c-0,0.999 -0.81,1.8 -1.818,1.8Z" style="fill:#a9a3b2;fill-rule:nonzero;"/><path d="M374.67,226.072c-0.486,-0 -0.882,-0.396 -0.882,-0.873c-0,-0.486 0.396,-0.882 0.882,-0.882c0.486,-0 0.882,0.396 0.882,0.882c0,0.477 -0.396,0.873 -0.882,0.873Z" style="fill:#a9a3b2;fill-rule:nonzero;"/><path d="M336.942,219.646c-0.828,0 -1.503,-0.666 -1.503,-1.494c-0,-0.819 0.675,-1.485 1.503,-1.485c0.837,-0 1.512,0.666 1.512,1.485c0,0.828 -0.675,1.494 -1.512,1.494Z" style="fill:#a9a3b2;fill-rule:nonzero;"/><path d="M411.201,153.64c-0.504,-0 -0.909,-0.405 -0.909,-0.9c-0,-0.495 0.405,-0.9 0.909,-0.9c0.504,0 0.909,0.405 0.909,0.9c-0,0.495 -0.405,0.9 -0.909,0.9Z" style="fill:#a9a3b2;fill-rule:nonzero;"/><path d="M414.18,80.911c-0.756,0 -1.368,-0.612 -1.368,-1.359c0,-0.747 0.612,-1.35 1.368,-1.35c0.756,-0 1.368,0.603 1.368,1.35c0,0.747 -0.612,1.359 -1.368,1.359Z" style="fill:#a9a3b2;fill-rule:nonzero;"/><path d="M337.815,108.739c-0.666,0 -1.206,-0.531 -1.206,-1.197c0,-0.657 0.54,-1.197 1.206,-1.197c0.666,-0 1.206,0.54 1.206,1.197c-0,0.666 -0.54,1.197 -1.206,1.197Z" style="fill:#a9a3b2;fill-rule:nonzero;"/><path d="M357.246,84.322c-0.54,0 -0.972,-0.432 -0.972,-0.963c-0,-0.54 0.432,-0.972 0.972,-0.972c0.54,0 0.972,0.432 0.972,0.972c-0,0.531 -0.432,0.963 -0.972,0.963Z" style="fill:#a9a3b2;fill-rule:nonzero;"/><path d="M394.875,203.698c-0.621,0 -1.125,-0.495 -1.125,-1.116c0,-0.621 0.504,-1.125 1.125,-1.125c0.63,0 1.134,0.504 1.134,1.125c0,0.621 -0.504,1.116 -1.134,1.116Z" style="fill:#a9a3b2;fill-rule:nonzero;"/><path d="M451.017,333.253c-0.639,-0 -1.161,-0.513 -1.161,-1.143c-0,-0.639 0.522,-1.152 1.161,-1.152c0.648,0 1.161,0.513 1.161,1.152c0,0.63 -0.513,1.143 -1.161,1.143Z" style="fill:#b9bac3;fill-rule:nonzero;"/><path d="M472.356,446.131c-0.738,0 -1.341,-0.594 -1.341,-1.332c0,-0.738 0.603,-1.332 1.341,-1.332c0.747,0 1.35,0.594 1.35,1.332c-0,0.738 -0.603,1.332 -1.35,1.332Z" style="fill:#cfd4d6;fill-rule:nonzero;"/><path d="M264.195,428.23c-0.999,0 -1.818,-0.801 -1.818,-1.791c0,-0.999 0.819,-1.8 1.818,-1.8c0.999,-0 1.818,0.801 1.818,1.8c0,0.99 -0.819,1.791 -1.818,1.791Z" style="fill:#cfd4d6;fill-rule:nonzero;"/><path d="M295.218,425.881c-0.918,0 -1.665,-0.738 -1.665,-1.647c0,-0.918 0.747,-1.656 1.665,-1.656c0.918,-0 1.665,0.738 1.665,1.656c-0,0.909 -0.747,1.647 -1.665,1.647Z" style="fill:#cfd4d6;fill-rule:nonzero;"/><path d="M282.807,521.857c-0.972,-0 -1.764,-0.783 -1.764,-1.737c-0,-0.963 0.792,-1.746 1.764,-1.746c0.972,-0 1.755,0.783 1.755,1.746c0,0.954 -0.783,1.737 -1.755,1.737Z" style="fill:#cfd4d6;fill-rule:nonzero;"/><path d="M312.003,557.191c-0.72,-0 -1.296,-0.576 -1.296,-1.287c0,-0.711 0.576,-1.287 1.296,-1.287c0.72,0 1.296,0.576 1.296,1.287c0,0.711 -0.576,1.287 -1.296,1.287Z" style="fill:#cfd4d6;fill-rule:nonzero;"/><path d="M295.479,568.711c-0.441,0 -0.801,-0.36 -0.801,-0.801c0,-0.441 0.36,-0.792 0.801,-0.792c0.45,0 0.81,0.351 0.81,0.792c0,0.441 -0.36,0.801 -0.81,0.801Z" style="fill:#cfd4d6;fill-rule:nonzero;"/><path d="M357.894,483.508c-0.828,0 -1.494,-0.666 -1.494,-1.485c-0,-0.81 0.666,-1.476 1.494,-1.476c0.828,0 1.494,0.666 1.494,1.476c0,0.819 -0.666,1.485 -1.494,1.485Z" style="fill:#cfd4d6;fill-rule:nonzero;"/><path d="M365.49,505.324c-0.738,-0 -1.332,-0.594 -1.332,-1.323c-0,-0.729 0.594,-1.323 1.332,-1.323c0.738,-0 1.332,0.594 1.332,1.323c-0,0.729 -0.594,1.323 -1.332,1.323Z" style="fill:#cfd4d6;fill-rule:nonzero;"/><path d="M402.597,463.303c-0.873,-0 -1.575,-0.702 -1.575,-1.566c0,-0.864 0.702,-1.566 1.575,-1.566c0.873,-0 1.584,0.702 1.584,1.566c-0,0.864 -0.711,1.566 -1.584,1.566Z" style="fill:#cfd4d6;fill-rule:nonzero;"/><path d="M391.158,483.409c-0.54,0 -0.981,-0.432 -0.981,-0.972c0,-0.531 0.441,-0.972 0.981,-0.972c0.54,0 0.981,0.441 0.981,0.972c0,0.54 -0.441,0.972 -0.981,0.972Z" style="fill:#cfd4d6;fill-rule:nonzero;"/><path d="M343.539,430.48c-0.432,0 -0.783,-0.351 -0.783,-0.783c0,-0.423 0.351,-0.774 0.783,-0.774c0.432,-0 0.783,0.351 0.783,0.774c-0,0.432 -0.351,0.783 -0.783,0.783Z" style="fill:#cfd4d6;fill-rule:nonzero;"/><path d="M386.199,491.131c-1.044,0 -1.89,-0.837 -1.89,-1.872c-0,-1.035 0.846,-1.872 1.89,-1.872c1.044,-0 1.89,0.837 1.89,1.872c-0,1.035 -0.846,1.872 -1.89,1.872Z" style="fill:#cfd4d6;fill-rule:nonzero;"/><path d="M386.082,425.656c-0.81,-0 -1.476,-0.657 -1.476,-1.467c-0,-0.801 0.666,-1.458 1.476,-1.458c0.819,-0 1.476,0.657 1.476,1.458c0,0.81 -0.657,1.467 -1.476,1.467Z" style="fill:#cfd4d6;fill-rule:nonzero;"/><path d="M348.543,455.545c-1.017,0 -1.836,-0.819 -1.836,-1.818c0,-1.008 0.819,-1.818 1.836,-1.818c1.017,0 1.836,0.81 1.836,1.818c-0,0.999 -0.819,1.818 -1.836,1.818Z" style="fill:#cfd4d6;fill-rule:nonzero;"/><path d="M373.383,533.746c-0.522,-0 -0.945,-0.423 -0.945,-0.936c-0,-0.513 0.423,-0.927 0.945,-0.927c0.513,0 0.936,0.414 0.936,0.927c0,0.513 -0.423,0.936 -0.936,0.936Z" style="fill:#cfd4d6;fill-rule:nonzero;"/><path d="M315.855,422.929c-0.549,0 -0.99,-0.441 -0.99,-0.981c-0,-0.54 0.441,-0.972 0.99,-0.972c0.54,0 0.981,0.432 0.981,0.972c-0,0.54 -0.441,0.981 -0.981,0.981Z" style="fill:#cfd4d6;fill-rule:nonzero;"/><path d="M325.233,494.65c-0.711,-0 -1.287,-0.576 -1.287,-1.278c0,-0.702 0.576,-1.269 1.287,-1.269c0.711,0 1.287,0.567 1.287,1.269c-0,0.702 -0.576,1.278 -1.287,1.278Z" style="fill:#cfd4d6;fill-rule:nonzero;"/><path d="M320.211,503.821c-0.63,0 -1.134,-0.495 -1.134,-1.116c-0,-0.612 0.504,-1.116 1.134,-1.116c0.621,-0 1.125,0.504 1.125,1.116c-0,0.621 -0.504,1.116 -1.125,1.116Z" style="fill:#cfd4d6;fill-rule:nonzero;"/><path d="M235.026,131.707c-0.639,-0 -1.152,-0.513 -1.152,-1.143c-0,-0.63 0.513,-1.143 1.152,-1.143c0.639,0 1.152,0.513 1.152,1.143c-0,0.63 -0.513,1.143 -1.152,1.143Z" style="fill:#a9a3b2;fill-rule:nonzero;"/><path d="M207.909,167.104c-0.675,0 -1.224,-0.54 -1.224,-1.215c-0,-0.666 0.549,-1.206 1.224,-1.206c0.675,-0 1.224,0.54 1.224,1.206c-0,0.675 -0.549,1.215 -1.224,1.215Z" style="fill:#a9a3b2;fill-rule:nonzero;"/><path d="M201.078,117.667c-0.792,-0 -1.431,-0.639 -1.431,-1.422c0,-0.783 0.639,-1.422 1.431,-1.422c0.783,0 1.431,0.639 1.431,1.422c0,0.783 -0.648,1.422 -1.431,1.422Z" style="fill:#a9a3b2;fill-rule:nonzero;"/><path d="M144.765,268.336c-0.63,0 -1.134,-0.504 -1.134,-1.125c-0,-0.621 0.504,-1.116 1.134,-1.116c0.621,0 1.125,0.495 1.125,1.116c-0,0.621 -0.504,1.125 -1.125,1.125Z" style="fill:#a9a3b2;fill-rule:nonzero;"/><path d="M119.187,229.204c-0.531,0 -0.972,-0.432 -0.972,-0.963c-0,-0.531 0.441,-0.963 0.972,-0.963c0.54,-0 0.981,0.432 0.981,0.963c-0,0.531 -0.441,0.963 -0.981,0.963Z" style="fill:#a9a3b2;fill-rule:nonzero;"/><path d="M103.851,113.14c-0.45,0 -0.819,-0.36 -0.819,-0.81c-0,-0.45 0.369,-0.81 0.819,-0.81c0.45,0 0.819,0.36 0.819,0.81c-0,0.45 -0.369,0.81 -0.819,0.81Z" style="fill:#a9a3b2;fill-rule:nonzero;"/><path d="M97.767,166.897c-0.954,0 -1.737,-0.765 -1.737,-1.719c-0,-0.945 0.783,-1.719 1.737,-1.719c0.954,-0 1.737,0.774 1.737,1.719c-0,0.954 -0.783,1.719 -1.737,1.719Z" style="fill:#a9a3b2;fill-rule:nonzero;"/><path d="M65.889,190.81c-0.496,0 -0.9,-0.396 -0.9,-0.891c-0,-0.495 0.404,-0.9 0.9,-0.9c0.504,-0 0.909,0.405 0.909,0.9c-0,0.495 -0.405,0.891 -0.909,0.891Z" style="fill:#a9a3b2;fill-rule:nonzero;"/><path d="M55.386,183.664c-0.414,0 -0.756,-0.333 -0.756,-0.747c0,-0.414 0.342,-0.747 0.756,-0.747c0.414,-0 0.747,0.333 0.747,0.747c-0,0.414 -0.333,0.747 -0.747,0.747Z" style="fill:#a9a3b2;fill-rule:nonzero;"/><path d="M47.655,194.563c-0.738,-0 -1.332,-0.594 -1.332,-1.323c0,-0.738 0.594,-1.332 1.332,-1.332c0.738,-0 1.341,0.594 1.341,1.332c-0,0.729 -0.603,1.323 -1.341,1.323Z" style="fill:#a9a3b2;fill-rule:nonzero;"/><path d="M34.128,183.187c-0.603,-0 -1.089,-0.486 -1.089,-1.08c0,-0.594 0.486,-1.08 1.089,-1.08c0.603,0 1.089,0.486 1.089,1.08c-0,0.594 -0.486,1.08 -1.089,1.08Z" style="fill:#a9a3b2;fill-rule:nonzero;"/><path d="M13.158,250.66c-0.864,0 -1.566,-0.693 -1.566,-1.557c0,-0.855 0.702,-1.557 1.566,-1.557c0.873,-0 1.575,0.702 1.575,1.557c-0,0.864 -0.702,1.557 -1.575,1.557Z" style="fill:#a9a3b2;fill-rule:nonzero;"/><path d="M44.46,248.698c-0.45,0 -0.819,-0.36 -0.819,-0.81c-0,-0.441 0.369,-0.81 0.819,-0.81c0.45,0 0.819,0.369 0.819,0.81c-0,0.45 -0.369,0.81 -0.819,0.81Z" style="fill:#a9a3b2;fill-rule:nonzero;"/><path d="M41.004,219.979c-0.828,0 -1.503,-0.666 -1.503,-1.485c-0,-0.819 0.675,-1.485 1.503,-1.485c0.828,0 1.503,0.666 1.503,1.485c-0,0.819 -0.675,1.485 -1.503,1.485Z" style="fill:#a9a3b2;fill-rule:nonzero;"/><path d="M27.252,111.88c-0.639,0 -1.161,-0.522 -1.161,-1.161c-0,-0.639 0.522,-1.152 1.161,-1.152c0.648,0 1.17,0.513 1.17,1.152c0,0.639 -0.522,1.161 -1.17,1.161Z" style="fill:#a9a3b2;fill-rule:nonzero;"/><path d="M51.579,110.998c-0.486,-0 -0.891,-0.396 -0.891,-0.882c-0,-0.486 0.405,-0.882 0.891,-0.882c0.495,0 0.9,0.396 0.9,0.882c0,0.486 -0.405,0.882 -0.9,0.882Z" style="fill:#a9a3b2;fill-rule:nonzero;"/><path d="M87.201,113.842c-0.792,-0 -1.431,-0.63 -1.431,-1.413c-0,-0.783 0.639,-1.413 1.431,-1.413c0.783,-0 1.422,0.63 1.422,1.413c0,0.783 -0.639,1.413 -1.422,1.413Z" style="fill:#a9a3b2;fill-rule:nonzero;"/><path d="M49.581,58.708c-0.567,0 -1.035,-0.459 -1.035,-1.026c0,-0.567 0.468,-1.026 1.035,-1.026c0.576,0 1.035,0.459 1.035,1.026c0,0.567 -0.459,1.026 -1.035,1.026Z" style="fill:#a9a3b2;fill-rule:nonzero;"/><path d="M173.025,159.733c-0.999,0 -1.8,-0.792 -1.8,-1.782c0,-0.981 0.801,-1.782 1.8,-1.782c0.99,0 1.791,0.801 1.791,1.782c-0,0.99 -0.801,1.782 -1.791,1.782Z" style="fill:#a9a3b2;fill-rule:nonzero;"/><path d="M166.446,140.023c-0.738,0 -1.341,-0.594 -1.341,-1.332c-0,-0.729 0.603,-1.332 1.341,-1.332c0.738,0 1.341,0.603 1.341,1.332c0,0.738 -0.603,1.332 -1.341,1.332Z" style="fill:#a9a3b2;fill-rule:nonzero;"/><path d="M126.855,71.776c-1.008,0 -1.827,-0.81 -1.827,-1.818c-0,-0.999 0.819,-1.809 1.827,-1.809c1.008,-0 1.835,0.81 1.835,1.809c0,1.008 -0.827,1.818 -1.835,1.818Z" style="fill:#a9a3b2;fill-rule:nonzero;"/><path d="M111.825,24.679c-0.756,0 -1.359,-0.603 -1.359,-1.341c0,-0.747 0.603,-1.35 1.359,-1.35c0.747,-0 1.35,0.603 1.35,1.35c0,0.738 -0.603,1.341 -1.35,1.341Z" style="fill:#a9a3b2;fill-rule:nonzero;"/><path d="M129.654,21.889c-0.513,-0 -0.927,-0.405 -0.927,-0.918c0,-0.504 0.414,-0.909 0.927,-0.909c0.504,0 0.918,0.405 0.918,0.909c0,0.513 -0.414,0.918 -0.918,0.918Z" style="fill:#a9a3b2;fill-rule:nonzero;"/><path d="M64.907,129.286c-0.656,0 -1.196,-0.531 -1.196,-1.188c-0,-0.648 0.54,-1.179 1.196,-1.179c0.667,0 1.198,0.531 1.198,1.179c0,0.657 -0.531,1.188 -1.198,1.188Z" style="fill:#a9a3b2;fill-rule:nonzero;"/><path d="M138.42,65.665c-0.477,-0 -0.864,-0.387 -0.864,-0.855c-0,-0.477 0.387,-0.855 0.864,-0.855c0.477,0 0.864,0.378 0.864,0.855c-0,0.468 -0.387,0.855 -0.864,0.855Z" style="fill:#a9a3b2;fill-rule:nonzero;"/><path d="M57.249,160.912c-0.522,-0 -0.945,-0.414 -0.945,-0.936c0,-0.513 0.423,-0.927 0.945,-0.927c0.522,-0 0.945,0.414 0.945,0.927c0,0.522 -0.423,0.936 -0.945,0.936Z" style="fill:#a9a3b2;fill-rule:nonzero;"/><path d="M105.489,152.137c-0.522,-0 -0.954,-0.423 -0.954,-0.945c0,-0.522 0.432,-0.945 0.954,-0.945c0.531,0 0.954,0.423 0.954,0.945c0,0.522 -0.423,0.945 -0.954,0.945Z" style="fill:#a9a3b2;fill-rule:nonzero;"/><path d="M75.951,197.839c-0.549,-0 -0.999,-0.45 -0.999,-0.999c0,-0.549 0.45,-0.99 0.999,-0.99c0.558,0 1.008,0.441 1.008,0.99c-0,0.549 -0.45,0.999 -1.008,0.999Z" style="fill:#a9a3b2;fill-rule:nonzero;"/><path d="M110.79,199.369c-0.864,-0 -1.566,-0.693 -1.566,-1.548c-0,-0.855 0.702,-1.548 1.566,-1.548c0.864,0 1.557,0.693 1.557,1.548c0,0.855 -0.693,1.548 -1.557,1.548Z" style="fill:#a9a3b2;fill-rule:nonzero;"/><path d="M159.219,191.359c-0.675,0 -1.215,-0.54 -1.215,-1.215c-0,-0.666 0.54,-1.206 1.215,-1.206c0.675,-0 1.215,0.54 1.215,1.206c0,0.675 -0.54,1.215 -1.215,1.215Z" style="fill:#a9a3b2;fill-rule:nonzero;"/><path d="M98.757,229.528c-0.423,-0 -0.774,-0.333 -0.774,-0.756c0,-0.423 0.351,-0.765 0.774,-0.765c0.423,-0 0.765,0.342 0.765,0.765c0,0.423 -0.342,0.756 -0.765,0.756Z" style="fill:#a9a3b2;fill-rule:nonzero;"/><path d="M136.557,233.551c-0.603,-0 -1.098,-0.495 -1.098,-1.098c-0,-0.603 0.495,-1.089 1.098,-1.089c0.612,-0 1.098,0.486 1.098,1.089c-0,0.603 -0.486,1.098 -1.098,1.098Z" style="fill:#a9a3b2;fill-rule:nonzero;"/><path d="M158.319,126.415c-0.495,-0 -0.891,-0.396 -0.891,-0.882c-0,-0.495 0.396,-0.891 0.891,-0.891c0.495,-0 0.891,0.396 0.891,0.891c0,0.486 -0.396,0.882 -0.891,0.882Z" style="fill:#a9a3b2;fill-rule:nonzero;"/><path d="M169.182,211.114c-0.99,-0 -1.782,-0.792 -1.782,-1.764c-0,-0.972 0.792,-1.764 1.782,-1.764c0.981,0 1.773,0.792 1.773,1.764c0,0.972 -0.792,1.764 -1.773,1.764Z" style="fill:#a9a3b2;fill-rule:nonzero;"/><path d="M161.253,285.535c-1.062,0 -1.917,-0.846 -1.917,-1.899c-0,-1.044 0.855,-1.89 1.917,-1.89c1.053,0 1.908,0.846 1.908,1.89c-0,1.053 -0.855,1.899 -1.908,1.899Z" style="fill:#a9a3b2;fill-rule:nonzero;"/><path d="M143.505,196.102c-0.882,-0 -1.602,-0.711 -1.602,-1.593c-0,-0.882 0.72,-1.593 1.602,-1.593c0.891,-0 1.602,0.711 1.602,1.593c-0,0.882 -0.711,1.593 -1.602,1.593Z" style="fill:#a9a3b2;fill-rule:nonzero;"/><path d="M131.994,254.629c-0.909,0 -1.656,-0.738 -1.656,-1.638c-0,-0.909 0.747,-1.647 1.656,-1.647c0.918,-0 1.656,0.738 1.656,1.647c-0,0.9 -0.738,1.638 -1.656,1.638Z" style="fill:#a9a3b2;fill-rule:nonzero;"/><path d="M94.95,277.561c-0.783,0 -1.431,-0.639 -1.431,-1.422c-0,-0.783 0.648,-1.413 1.431,-1.413c0.792,-0 1.431,0.63 1.431,1.413c-0,0.783 -0.639,1.422 -1.431,1.422Z" style="fill:#a9a3b2;fill-rule:nonzero;"/><path d="M89.361,206.182c-0.702,0 -1.269,-0.558 -1.269,-1.26c0,-0.693 0.567,-1.251 1.269,-1.251c0.702,-0 1.269,0.558 1.269,1.251c-0,0.702 -0.567,1.26 -1.269,1.26Z" style="fill:#a9a3b2;fill-rule:nonzero;"/><path d="M88.389,172.873c-0.549,-0 -0.99,-0.441 -0.99,-0.981c0,-0.54 0.441,-0.981 0.99,-0.981c0.549,-0 0.99,0.441 0.99,0.981c-0,0.54 -0.441,0.981 -0.99,0.981Z" style="fill:#a9a3b2;fill-rule:nonzero;"/><path d="M65.97,194.032c-0.675,-0 -1.224,-0.54 -1.224,-1.215c0,-0.666 0.549,-1.206 1.224,-1.206c0.675,-0 1.215,0.54 1.215,1.206c-0,0.675 -0.54,1.215 -1.215,1.215Z" style="fill:#a9a3b2;fill-rule:nonzero;"/><path d="M74.493,247.384c-0.432,0 -0.783,-0.342 -0.783,-0.774c-0,-0.432 0.351,-0.774 0.783,-0.774c0.432,0 0.783,0.342 0.783,0.774c0,0.432 -0.351,0.774 -0.783,0.774Z" style="fill:#a9a3b2;fill-rule:nonzero;"/><path d="M21.888,221.635c-0.828,0 -1.503,-0.666 -1.503,-1.485c0,-0.819 0.675,-1.485 1.503,-1.485c0.828,0 1.494,0.666 1.494,1.485c-0,0.819 -0.666,1.485 -1.494,1.485Z" style="fill:#a9a3b2;fill-rule:nonzero;"/><path d="M369.801,292.096c-0.414,0 -0.756,-0.333 -0.756,-0.747c0,-0.405 0.342,-0.738 0.756,-0.738c0.414,-0 0.756,0.333 0.756,0.738c0,0.414 -0.342,0.747 -0.756,0.747Z" style="fill:#b9bac3;fill-rule:nonzero;"/><path d="M362.07,302.995c-0.738,-0 -1.332,-0.594 -1.332,-1.323c0,-0.738 0.594,-1.332 1.332,-1.332c0.747,0 1.341,0.594 1.341,1.332c0,0.729 -0.594,1.323 -1.341,1.323Z" style="fill:#b9bac3;fill-rule:nonzero;"/><path d="M348.543,291.619c-0.603,-0 -1.089,-0.486 -1.089,-1.08c0,-0.594 0.486,-1.08 1.089,-1.08c0.603,-0 1.089,0.486 1.089,1.08c-0,0.594 -0.486,1.08 -1.089,1.08Z" style="fill:#b9bac3;fill-rule:nonzero;"/><path d="M356.911,327.109c-0.986,-0.112 -1.99,-0.22 -2.98,-0.319c0.069,-0.756 0.706,-1.349 1.488,-1.349c0.837,0 1.503,0.666 1.503,1.485c-0,0.062 -0.004,0.123 -0.011,0.183Z" style="fill:#b9bac3;fill-rule:nonzero;"/><path d="M355.419,328.42c-0.828,-0 -1.494,-0.666 -1.494,-1.494c-0,-0.046 0.002,-0.091 0.006,-0.136c0.99,0.099 1.994,0.207 2.98,0.319c-0.09,0.741 -0.718,1.311 -1.492,1.311Z" style="fill:#cfd4d6;fill-rule:nonzero;"/><path d="M336.303,330.067c-0.828,-0 -1.494,-0.666 -1.494,-1.485c-0,-0.819 0.666,-1.485 1.494,-1.485c0.828,-0 1.494,0.666 1.494,1.485c-0,0.819 -0.666,1.485 -1.494,1.485Z" style="fill:#cfd4d6;fill-rule:nonzero;"/><path d="M75.519,301.735c-0.45,-0 -0.819,-0.36 -0.819,-0.801c-0,-0.45 0.369,-0.81 0.819,-0.81c0.45,-0 0.81,0.36 0.81,0.81c0,0.441 -0.36,0.801 -0.81,0.801Z" style="fill:#a9a3b2;fill-rule:nonzero;"/><path d="M42.651,289.315c-0.54,0 -0.981,-0.441 -0.981,-0.972c-0,-0.54 0.441,-0.972 0.981,-0.972c0.54,0 0.981,0.432 0.981,0.972c-0,0.531 -0.441,0.972 -0.981,0.972Z" style="fill:#a9a3b2;fill-rule:nonzero;"/><path d="M33.246,295.228c-0.801,0 -1.44,-0.639 -1.44,-1.422c-0,-0.783 0.639,-1.422 1.44,-1.422c0.792,0 1.431,0.639 1.431,1.422c-0,0.783 -0.639,1.422 -1.431,1.422Z" style="fill:#a9a3b2;fill-rule:nonzero;"/><path d="M258.66,85.393c-0.757,0 -1.368,-0.603 -1.368,-1.35c-0,-0.756 0.611,-1.359 1.368,-1.359c0.755,0 1.368,0.603 1.368,1.359c0,0.747 -0.613,1.35 -1.368,1.35Z" style="fill:#a9a3b2;fill-rule:nonzero;"/><path d="M182.304,113.23c-0.675,-0 -1.215,-0.54 -1.215,-1.197c0,-0.666 0.54,-1.197 1.215,-1.197c0.666,0 1.206,0.531 1.206,1.197c-0,0.657 -0.54,1.197 -1.206,1.197Z" style="fill:#a9a3b2;fill-rule:nonzero;"/><path d="M201.735,88.804c-0.54,0 -0.972,-0.432 -0.972,-0.963c0,-0.531 0.432,-0.963 0.972,-0.963c0.54,-0 0.972,0.432 0.972,0.963c0,0.531 -0.432,0.963 -0.972,0.963Z" style="fill:#a9a3b2;fill-rule:nonzero;"/><path d="M132.201,103.78c-0.882,-0 -1.602,-0.711 -1.602,-1.593c-0,-0.882 0.72,-1.593 1.602,-1.593c0.891,-0 1.611,0.711 1.611,1.593c-0,0.882 -0.72,1.593 -1.611,1.593Z" style="fill:#a9a3b2;fill-rule:nonzero;"/><path d="M149.832,63.424c-0.504,0 -0.918,-0.414 -0.918,-0.918c0,-0.504 0.414,-0.909 0.918,-0.909c0.513,-0 0.918,0.405 0.918,0.909c0,0.504 -0.405,0.918 -0.918,0.918Z" style="fill:#a9a3b2;fill-rule:nonzero;"/><path d="M159.831,35.128c-0.648,-0 -1.17,-0.522 -1.17,-1.161c-0,-0.639 0.522,-1.161 1.17,-1.161c0.648,-0 1.17,0.522 1.17,1.161c0,0.639 -0.522,1.161 -1.17,1.161Z" style="fill:#a9a3b2;fill-rule:nonzero;"/><path d="M115.785,41.995c-0.72,0 -1.305,-0.576 -1.305,-1.296c0,-0.72 0.585,-1.296 1.305,-1.296c0.729,0 1.314,0.576 1.314,1.296c-0,0.72 -0.585,1.296 -1.314,1.296Z" style="fill:#a9a3b2;fill-rule:nonzero;"/><path d="M57.78,43.552c-0.639,0 -1.161,-0.513 -1.161,-1.152c-0,-0.63 0.522,-1.143 1.161,-1.143c0.639,0 1.161,0.513 1.161,1.143c0,0.639 -0.522,1.152 -1.161,1.152Z" style="fill:#a9a3b2;fill-rule:nonzero;"/><path d="M79.119,156.421c-0.747,-0 -1.341,-0.594 -1.341,-1.323c-0,-0.738 0.594,-1.332 1.341,-1.332c0.738,-0 1.341,0.594 1.341,1.332c-0,0.729 -0.603,1.323 -1.341,1.323Z" style="fill:#a9a3b2;fill-rule:nonzero;"/><path d="M21.105,46.585c-0.738,0 -1.323,-0.585 -1.323,-1.305c-0,-0.729 0.585,-1.314 1.323,-1.314c0.729,0 1.323,0.585 1.323,1.314c-0,0.72 -0.594,1.305 -1.323,1.305Z" style="fill:#a9a3b2;fill-rule:nonzero;"/><path d="M34.992,59.896c-0.648,0 -1.17,-0.513 -1.17,-1.152c-0,-0.639 0.522,-1.161 1.17,-1.161c0.639,0 1.161,0.522 1.161,1.161c-0,0.639 -0.522,1.152 -1.161,1.152Z" style="fill:#a9a3b2;fill-rule:nonzero;"/><path d="M230.265,609.22c-0.567,-0 -1.035,-0.459 -1.035,-1.026c-0,-0.567 0.468,-1.026 1.035,-1.026c0.576,0 1.035,0.459 1.035,1.026c0,0.567 -0.459,1.026 -1.035,1.026Z" style="fill:#cfd4d6;fill-rule:nonzero;"/><path d="M152.991,597.736c-1.008,0 -1.827,-0.819 -1.827,-1.818c0,-1.008 0.819,-1.818 1.827,-1.818c1.017,0 1.836,0.81 1.836,1.818c-0,0.999 -0.819,1.818 -1.836,1.818Z" style="fill:#cfd4d6;fill-rule:nonzero;"/><path d="M168.03,643.888c-0.747,-0 -1.359,-0.603 -1.359,-1.341c0,-0.747 0.612,-1.35 1.359,-1.35c0.747,-0 1.35,0.603 1.35,1.35c0,0.738 -0.603,1.341 -1.35,1.341Z" style="fill:#cfd4d6;fill-rule:nonzero;"/><path d="M150.201,645.814c-0.513,0 -0.927,-0.405 -0.927,-0.909c0,-0.504 0.414,-0.918 0.927,-0.918c0.504,0 0.918,0.414 0.918,0.918c0,0.504 -0.414,0.909 -0.918,0.909Z" style="fill:#cfd4d6;fill-rule:nonzero;"/><path d="M141.426,601.921c-0.468,-0 -0.855,-0.378 -0.855,-0.855c-0,-0.468 0.387,-0.855 0.855,-0.855c0.477,-0 0.864,0.387 0.864,0.855c-0,0.477 -0.387,0.855 -0.864,0.855Z" style="fill:#cfd4d6;fill-rule:nonzero;"/><path d="M21.186,583.192c-0.756,-0 -1.368,-0.603 -1.368,-1.35c0,-0.747 0.612,-1.359 1.368,-1.359c0.756,-0 1.368,0.612 1.368,1.359c0,0.747 -0.612,1.35 -1.368,1.35Z" style="fill:#a9a3b2;fill-rule:nonzero;"/><path d="M78.12,578.998c-0.54,-0 -0.981,-0.432 -0.981,-0.963c-0,-0.531 0.441,-0.963 0.981,-0.963c0.531,0 0.972,0.432 0.972,0.963c0,0.531 -0.441,0.963 -0.972,0.963Z" style="fill:#b9bac3;fill-rule:nonzero;"/><path d="M130.014,604.279c-0.505,0 -0.919,-0.405 -0.919,-0.909c0,-0.504 0.414,-0.918 0.919,-0.918c0.512,0 0.926,0.414 0.926,0.918c0,0.504 -0.414,0.909 -0.926,0.909Z" style="fill:#cfd4d6;fill-rule:nonzero;"/><path d="M120.015,633.07c-0.648,0 -1.17,-0.513 -1.17,-1.161c0,-0.639 0.522,-1.161 1.17,-1.161c0.648,0 1.17,0.522 1.17,1.161c-0,0.648 -0.522,1.161 -1.17,1.161Z" style="fill:#cfd4d6;fill-rule:nonzero;"/><path d="M164.061,626.482c-0.72,-0 -1.305,-0.585 -1.305,-1.305c-0,-0.711 0.585,-1.296 1.305,-1.296c0.729,0 1.314,0.585 1.314,1.296c0,0.72 -0.585,1.305 -1.314,1.305Z" style="fill:#cfd4d6;fill-rule:nonzero;"/><path d="M222.066,624.628c-0.639,-0 -1.161,-0.522 -1.161,-1.152c-0,-0.639 0.522,-1.152 1.161,-1.152c0.648,-0 1.161,0.513 1.161,1.152c0,0.63 -0.513,1.152 -1.161,1.152Z" style="fill:#cfd4d6;fill-rule:nonzero;"/><path d="M258.75,621.919c-0.729,-0 -1.323,-0.594 -1.323,-1.314c0,-0.729 0.594,-1.314 1.323,-1.314c0.729,0 1.323,0.585 1.323,1.314c-0,0.72 -0.594,1.314 -1.323,1.314Z" style="fill:#cfd4d6;fill-rule:nonzero;"/><path d="M244.863,608.293c-0.648,0 -1.17,-0.513 -1.17,-1.152c-0,-0.639 0.522,-1.161 1.17,-1.161c0.639,0 1.161,0.522 1.161,1.161c0,0.639 -0.522,1.152 -1.161,1.152Z" style="fill:#cfd4d6;fill-rule:nonzero;"/><path d="M339.705,624.511c-0.513,-0 -0.936,-0.423 -0.936,-0.936c0,-0.513 0.423,-0.927 0.936,-0.927c0.522,-0 0.936,0.414 0.936,0.927c-0,0.513 -0.414,0.936 -0.936,0.936Z" style="fill:#cfd4d6;fill-rule:nonzero;"/><path d="M379.89,650.701c-0.882,0 -1.602,-0.72 -1.602,-1.593c-0,-0.882 0.72,-1.593 1.602,-1.593c0.891,0 1.611,0.711 1.611,1.593c0,0.873 -0.72,1.593 -1.611,1.593Z" style="fill:#a9a3b2;fill-rule:nonzero;"/><path d="M409.734,616.384c-0.846,-0 -1.53,-0.684 -1.53,-1.521c0,-0.837 0.684,-1.512 1.53,-1.512c0.846,-0 1.53,0.675 1.53,1.512c0,0.837 -0.684,1.521 -1.53,1.521Z" style="fill:#cfd4d6;fill-rule:nonzero;"/><path d="M377.613,582.139c-0.81,-0 -1.467,-0.657 -1.467,-1.458c-0,-0.801 0.657,-1.449 1.467,-1.449c0.81,-0 1.467,0.648 1.467,1.449c-0,0.801 -0.657,1.458 -1.467,1.458Z" style="fill:#cfd4d6;fill-rule:nonzero;"/><path d="M623.511,609.22c-0.576,-0 -1.035,-0.459 -1.035,-1.026c0,-0.567 0.459,-1.026 1.035,-1.026c0.567,0 1.035,0.459 1.035,1.026c0,0.567 -0.468,1.026 -1.035,1.026Z" style="fill:#a9a3b2;fill-rule:nonzero;"/><path d="M546.237,597.736c-1.017,0 -1.836,-0.819 -1.836,-1.818c0,-1.008 0.819,-1.818 1.836,-1.818c1.008,0 1.827,0.81 1.827,1.818c0,0.999 -0.819,1.818 -1.827,1.818Z" style="fill:#cfd4d6;fill-rule:nonzero;"/><path d="M561.267,643.888c-0.747,-0 -1.35,-0.603 -1.35,-1.341c-0,-0.747 0.603,-1.35 1.35,-1.35c0.747,-0 1.359,0.603 1.359,1.35c-0,0.738 -0.612,1.341 -1.359,1.341Z" style="fill:#b9bac3;fill-rule:nonzero;"/><path d="M543.438,645.814c-0.513,0 -0.927,-0.405 -0.927,-0.909c-0,-0.256 0.107,-0.489 0.279,-0.656c0.426,-0.004 0.858,-0.007 1.284,-0.011c0.179,0.168 0.291,0.405 0.291,0.667c-0,0.504 -0.414,0.909 -0.927,0.909Z" style="fill:#a9a3b2;fill-rule:nonzero;"/><path d="M542.79,644.249c0.167,-0.162 0.395,-0.262 0.648,-0.262c0.247,0 0.47,0.096 0.636,0.251c-0.426,0.004 -0.858,0.007 -1.284,0.011Z" style="fill:#cfd4d6;fill-rule:nonzero;"/><path d="M534.672,601.921c-0.477,-0 -0.864,-0.378 -0.864,-0.855c-0,-0.468 0.387,-0.855 0.864,-0.855c0.477,-0 0.855,0.387 0.855,0.855c-0,0.477 -0.378,0.855 -0.855,0.855Z" style="fill:#cfd4d6;fill-rule:nonzero;"/><path d="M414.423,583.192c-0.756,-0 -1.368,-0.603 -1.368,-1.35c-0,-0.747 0.612,-1.359 1.368,-1.359c0.756,-0 1.368,0.612 1.368,1.359c-0,0.747 -0.612,1.35 -1.368,1.35Z" style="fill:#cfd4d6;fill-rule:nonzero;"/><path d="M471.357,578.998c-0.54,-0 -0.972,-0.432 -0.972,-0.963c0,-0.531 0.432,-0.963 0.972,-0.963c0.54,0 0.972,0.432 0.972,0.963c0,0.531 -0.432,0.963 -0.972,0.963Z" style="fill:#cfd4d6;fill-rule:nonzero;"/><path d="M523.26,604.279c-0.513,0 -0.927,-0.405 -0.927,-0.909c0,-0.504 0.414,-0.918 0.927,-0.918c0.503,0 0.917,0.414 0.917,0.918c0,0.504 -0.414,0.909 -0.917,0.909Z" style="fill:#cfd4d6;fill-rule:nonzero;"/><path d="M513.252,633.07c-0.64,0 -1.171,-0.513 -1.171,-1.161c-0,-0.639 0.531,-1.161 1.171,-1.161c0.648,0 1.17,0.522 1.17,1.161c-0,0.648 -0.522,1.161 -1.17,1.161Z" style="fill:#cfd4d6;fill-rule:nonzero;"/><path d="M557.298,626.482c-0.379,-0 -0.721,-0.162 -0.959,-0.421c0.203,-0.709 0.403,-1.418 0.6,-2.13c0.114,-0.032 0.235,-0.05 0.359,-0.05c0.729,0 1.314,0.585 1.314,1.296c-0,0.72 -0.585,1.305 -1.314,1.305Z" style="fill:#b9bac3;fill-rule:nonzero;"/><path d="M556.339,626.061c-0.215,-0.233 -0.346,-0.543 -0.346,-0.884c-0,-0.588 0.4,-1.09 0.946,-1.246c-0.197,0.712 -0.397,1.421 -0.6,2.13Z" style="fill:#cfd4d6;fill-rule:nonzero;"/><path d="M615.312,624.628c-0.648,-0 -1.161,-0.522 -1.161,-1.152c0,-0.639 0.513,-1.152 1.161,-1.152c0.639,-0 1.152,0.513 1.152,1.152c-0,0.63 -0.513,1.152 -1.152,1.152Z" style="fill:#a9a3b2;fill-rule:nonzero;"/><path d="M652.479,621.824c0.136,-0.728 0.271,-1.458 0.403,-2.187c0.263,0.239 0.428,0.584 0.428,0.968c-0,0.548 -0.345,1.023 -0.831,1.219Z" style="fill:#a9a3b2;fill-rule:nonzero;"/><path d="M651.987,621.919c-0.729,-0 -1.323,-0.594 -1.323,-1.314c0,-0.729 0.594,-1.314 1.323,-1.314c0.345,0 0.659,0.131 0.895,0.346c-0.132,0.729 -0.267,1.459 -0.403,2.187c-0.152,0.061 -0.318,0.095 -0.492,0.095Z" style="fill:#a9a3b2;fill-rule:nonzero;"/><path d="M638.1,608.293c-0.648,0 -1.17,-0.513 -1.17,-1.152c-0,-0.639 0.522,-1.161 1.17,-1.161c0.648,0 1.17,0.522 1.17,1.161c0,0.639 -0.522,1.152 -1.17,1.152Z" style="fill:#a9a3b2;fill-rule:nonzero;"/><path d="M235.026,421.408c-0.639,-0 -1.152,-0.504 -1.152,-1.143c-0,-0.63 0.513,-1.143 1.152,-1.143c0.639,-0 1.152,0.513 1.152,1.143c-0,0.639 -0.513,1.143 -1.152,1.143Z" style="fill:#cfd4d6;fill-rule:nonzero;"/><path d="M207.909,456.805c-0.675,-0 -1.224,-0.54 -1.224,-1.206c-0,-0.675 0.549,-1.214 1.224,-1.214c0.675,-0 1.224,0.539 1.224,1.214c-0,0.666 -0.549,1.206 -1.224,1.206Z" style="fill:#cfd4d6;fill-rule:nonzero;"/><path d="M201.078,407.368c-0.792,0 -1.431,-0.63 -1.431,-1.413c0,-0.792 0.639,-1.422 1.431,-1.422c0.783,-0 1.431,0.63 1.431,1.422c0,0.783 -0.648,1.413 -1.431,1.413Z" style="fill:#cfd4d6;fill-rule:nonzero;"/><path d="M178.317,520.012c-0.405,-0 -0.738,-0.333 -0.738,-0.729c-0,-0.405 0.333,-0.729 0.738,-0.729c0.405,0 0.729,0.324 0.729,0.729c0,0.396 -0.324,0.729 -0.729,0.729Z" style="fill:#cfd4d6;fill-rule:nonzero;"/><path d="M144.765,558.037c-0.63,-0 -1.134,-0.504 -1.134,-1.125c-0,-0.612 0.504,-1.116 1.134,-1.116c0.621,0 1.125,0.504 1.125,1.116c-0,0.621 -0.504,1.125 -1.125,1.125Z" style="fill:#cfd4d6;fill-rule:nonzero;"/><path d="M119.187,518.905c-0.531,0 -0.972,-0.423 -0.972,-0.963c-0,-0.531 0.441,-0.963 0.972,-0.963c0.54,-0 0.981,0.432 0.981,0.963c-0,0.54 -0.441,0.963 -0.981,0.963Z" style="fill:#cfd4d6;fill-rule:nonzero;"/><path d="M103.851,402.841c-0.45,0 -0.819,-0.36 -0.819,-0.81c-0,-0.45 0.369,-0.81 0.819,-0.81c0.45,0 0.819,0.36 0.819,0.81c-0,0.45 -0.369,0.81 -0.819,0.81Z" style="fill:#b9bac3;fill-rule:nonzero;"/><path d="M97.767,456.607c-0.954,-0 -1.737,-0.774 -1.737,-1.719c-0,-0.954 0.783,-1.719 1.737,-1.719c0.954,-0 1.737,0.765 1.737,1.719c-0,0.945 -0.783,1.719 -1.737,1.719Z" style="fill:#b9bac3;fill-rule:nonzero;"/><path d="M65.889,480.511c-0.496,0 -0.9,-0.396 -0.9,-0.891c-0,-0.495 0.404,-0.891 0.9,-0.891c0.504,-0 0.909,0.396 0.909,0.891c-0,0.495 -0.405,0.891 -0.909,0.891Z" style="fill:#b9bac3;fill-rule:nonzero;"/><path d="M55.386,473.374c-0.414,-0 -0.756,-0.342 -0.756,-0.747c0,-0.414 0.342,-0.747 0.756,-0.747c0.414,-0 0.747,0.333 0.747,0.747c-0,0.405 -0.333,0.747 -0.747,0.747Z" style="fill:#a9a3b2;fill-rule:nonzero;"/><path d="M47.655,484.264c-0.738,-0 -1.332,-0.594 -1.332,-1.323c0,-0.738 0.594,-1.332 1.332,-1.332c0.738,-0 1.341,0.594 1.341,1.332c-0,0.729 -0.603,1.323 -1.341,1.323Z" style="fill:#a9a3b2;fill-rule:nonzero;"/><path d="M34.128,472.888c-0.603,0 -1.089,-0.486 -1.089,-1.08c0,-0.594 0.486,-1.08 1.089,-1.08c0.603,0 1.089,0.486 1.089,1.08c-0,0.594 -0.486,1.08 -1.089,1.08Z" style="fill:#a9a3b2;fill-rule:nonzero;"/><path d="M13.158,540.361c-0.864,-0 -1.566,-0.693 -1.566,-1.548c0,-0.864 0.702,-1.557 1.566,-1.557c0.873,0 1.575,0.693 1.575,1.557c-0,0.855 -0.702,1.548 -1.575,1.548Z" style="fill:#a9a3b2;fill-rule:nonzero;"/><path d="M44.46,538.408c-0.45,0 -0.819,-0.36 -0.819,-0.81c-0,-0.45 0.369,-0.81 0.819,-0.81c0.45,-0 0.819,0.36 0.819,0.81c-0,0.45 -0.369,0.81 -0.819,0.81Z" style="fill:#a9a3b2;fill-rule:nonzero;"/><path d="M41.004,509.689c-0.828,0 -1.503,-0.666 -1.503,-1.494c-0,-0.819 0.675,-1.485 1.503,-1.485c0.828,-0 1.503,0.666 1.503,1.485c-0,0.828 -0.675,1.494 -1.503,1.494Z" style="fill:#a9a3b2;fill-rule:nonzero;"/><path d="M27.252,401.581c-0.639,-0 -1.161,-0.513 -1.161,-1.152c-0,-0.639 0.522,-1.161 1.161,-1.161c0.648,0 1.17,0.522 1.17,1.161c0,0.639 -0.522,1.152 -1.17,1.152Z" style="fill:#a9a3b2;fill-rule:nonzero;"/><path d="M51.579,400.708c-0.486,0 -0.891,-0.396 -0.891,-0.891c-0,-0.486 0.405,-0.882 0.891,-0.882c0.495,0 0.9,0.396 0.9,0.882c0,0.495 -0.405,0.891 -0.9,0.891Z" style="fill:#a9a3b2;fill-rule:nonzero;"/><path d="M49.581,348.409c-0.567,0 -1.035,-0.459 -1.035,-1.026c0,-0.567 0.468,-1.026 1.035,-1.026c0.576,-0 1.035,0.459 1.035,1.026c0,0.567 -0.459,1.026 -1.035,1.026Z" style="fill:#a9a3b2;fill-rule:nonzero;"/><path d="M173.025,449.443c-0.999,-0 -1.8,-0.801 -1.8,-1.782c0,-0.99 0.801,-1.782 1.8,-1.782c0.99,0 1.791,0.792 1.791,1.782c-0,0.981 -0.801,1.782 -1.791,1.782Z" style="fill:#cfd4d6;fill-rule:nonzero;"/><path d="M166.446,429.724c-0.738,0 -1.341,-0.594 -1.341,-1.323c-0,-0.738 0.603,-1.332 1.341,-1.332c0.738,0 1.341,0.594 1.341,1.332c0,0.729 -0.603,1.323 -1.341,1.323Z" style="fill:#cfd4d6;fill-rule:nonzero;"/><path d="M126.855,361.486c-1.008,-0 -1.827,-0.819 -1.827,-1.818c-0,-1.008 0.819,-1.818 1.827,-1.818c1.008,0 1.835,0.81 1.835,1.818c0,0.999 -0.827,1.818 -1.835,1.818Z" style="fill:#a9a3b2;fill-rule:nonzero;"/><path d="M129.654,311.59c-0.513,0 -0.927,-0.405 -0.927,-0.909c0,-0.504 0.414,-0.918 0.927,-0.918c0.504,0 0.918,0.414 0.918,0.918c0,0.504 -0.414,0.909 -0.918,0.909Z" style="fill:#a9a3b2;fill-rule:nonzero;"/><path d="M137.778,355.085c-0.138,-0.151 -0.222,-0.352 -0.222,-0.574c-0,-0.468 0.387,-0.855 0.864,-0.855c0.242,0 0.461,0.1 0.618,0.259c-0.421,0.388 -0.842,0.779 -1.26,1.17Z" style="fill:#a9a3b2;fill-rule:nonzero;"/><path d="M138.42,355.366c-0.255,0 -0.484,-0.108 -0.642,-0.281c0.418,-0.391 0.839,-0.782 1.26,-1.17c0.152,0.155 0.246,0.365 0.246,0.596c-0,0.477 -0.387,0.855 -0.864,0.855Z" style="fill:#b9bac3;fill-rule:nonzero;"/><path d="M57.249,450.622c-0.522,-0 -0.945,-0.422 -0.945,-0.936c0,-0.522 0.423,-0.936 0.945,-0.936c0.522,0 0.945,0.414 0.945,0.936c0,0.514 -0.423,0.936 -0.945,0.936Z" style="fill:#a9a3b2;fill-rule:nonzero;"/><path d="M105.489,441.838c-0.522,0 -0.954,-0.423 -0.954,-0.945c0,-0.522 0.432,-0.945 0.954,-0.945c0.531,0 0.954,0.423 0.954,0.945c0,0.522 -0.423,0.945 -0.954,0.945Z" style="fill:#b9bac3;fill-rule:nonzero;"/><path d="M75.951,487.54c-0.549,-0 -0.999,-0.441 -0.999,-0.99c0,-0.549 0.45,-0.999 0.999,-0.999c0.558,-0 1.008,0.45 1.008,0.999c-0,0.549 -0.45,0.99 -1.008,0.99Z" style="fill:#b9bac3;fill-rule:nonzero;"/><path d="M110.79,489.07c-0.864,-0 -1.566,-0.693 -1.566,-1.548c-0,-0.855 0.702,-1.548 1.566,-1.548c0.864,0 1.557,0.693 1.557,1.548c0,0.855 -0.693,1.548 -1.557,1.548Z" style="fill:#cfd4d6;fill-rule:nonzero;"/><path d="M159.219,481.06c-0.675,0 -1.215,-0.54 -1.215,-1.206c-0,-0.666 0.54,-1.206 1.215,-1.206c0.675,-0 1.215,0.54 1.215,1.206c0,0.666 -0.54,1.206 -1.215,1.206Z" style="fill:#cfd4d6;fill-rule:nonzero;"/><path d="M98.365,519.131c-0.228,-0.133 -0.382,-0.378 -0.382,-0.658c0,-0.377 0.279,-0.689 0.639,-0.753c-0.087,0.467 -0.173,0.943 -0.257,1.411Z" style="fill:#b9bac3;fill-rule:nonzero;"/><path d="M98.757,519.238c-0.143,-0 -0.277,-0.04 -0.392,-0.107c0.084,-0.468 0.17,-0.944 0.257,-1.411c0.044,-0.007 0.089,-0.012 0.135,-0.012c0.423,-0 0.765,0.342 0.765,0.765c0,0.423 -0.342,0.765 -0.765,0.765Z" style="fill:#cfd4d6;fill-rule:nonzero;"/><path d="M214.614,508.51c-0.999,-0 -1.818,-0.81 -1.818,-1.8c0,-0.999 0.819,-1.8 1.818,-1.8c1.008,-0 1.818,0.801 1.818,1.8c0,0.99 -0.81,1.8 -1.818,1.8Z" style="fill:#cfd4d6;fill-rule:nonzero;"/><path d="M136.557,523.252c-0.603,0 -1.098,-0.486 -1.098,-1.089c-0,-0.603 0.495,-1.098 1.098,-1.098c0.612,0 1.098,0.495 1.098,1.098c-0,0.603 -0.486,1.089 -1.098,1.089Z" style="fill:#cfd4d6;fill-rule:nonzero;"/><path d="M219.159,520.264c-0.495,-0 -0.882,-0.396 -0.882,-0.882c-0,-0.477 0.387,-0.873 0.882,-0.873c0.486,0 0.882,0.396 0.882,0.873c0,0.486 -0.396,0.882 -0.882,0.882Z" style="fill:#cfd4d6;fill-rule:nonzero;"/><path d="M158.319,416.116c-0.495,0 -0.891,-0.396 -0.891,-0.882c-0,-0.486 0.396,-0.882 0.891,-0.882c0.495,-0 0.891,0.396 0.891,0.882c0,0.486 -0.396,0.882 -0.891,0.882Z" style="fill:#cfd4d6;fill-rule:nonzero;"/><path d="M237.105,568.504c-0.639,0 -1.161,-0.522 -1.161,-1.161c0,-0.63 0.522,-1.152 1.161,-1.152c0.648,-0 1.17,0.522 1.17,1.152c-0,0.639 -0.522,1.161 -1.17,1.161Z" style="fill:#cfd4d6;fill-rule:nonzero;"/><path d="M199.143,552.808c-0.684,0 -1.224,-0.54 -1.224,-1.206c0,-0.675 0.54,-1.215 1.224,-1.215c0.675,-0 1.215,0.54 1.215,1.215c0,0.666 -0.54,1.206 -1.215,1.206Z" style="fill:#cfd4d6;fill-rule:nonzero;"/><path d="M181.431,513.838c-0.828,0 -1.503,-0.666 -1.503,-1.494c-0,-0.819 0.675,-1.494 1.503,-1.494c0.828,-0 1.503,0.675 1.503,1.494c0,0.828 -0.675,1.494 -1.503,1.494Z" style="fill:#cfd4d6;fill-rule:nonzero;"/><path d="M169.182,500.824c-0.99,-0 -1.782,-0.792 -1.782,-1.764c-0,-0.981 0.792,-1.764 1.782,-1.764c0.981,-0 1.773,0.783 1.773,1.764c0,0.972 -0.792,1.764 -1.773,1.764Z" style="fill:#cfd4d6;fill-rule:nonzero;"/><path d="M161.253,575.236c-1.062,-0 -1.917,-0.846 -1.917,-1.89c-0,-1.053 0.855,-1.899 1.917,-1.899c1.053,0 1.908,0.846 1.908,1.899c-0,1.044 -0.855,1.89 -1.908,1.89Z" style="fill:#cfd4d6;fill-rule:nonzero;"/><path d="M143.505,485.803c-0.882,-0 -1.602,-0.711 -1.602,-1.593c-0,-0.873 0.72,-1.584 1.602,-1.584c0.891,-0 1.602,0.711 1.602,1.584c-0,0.882 -0.711,1.593 -1.602,1.593Z" style="fill:#cfd4d6;fill-rule:nonzero;"/><path d="M131.994,544.33c-0.909,-0 -1.656,-0.729 -1.656,-1.638c-0,-0.909 0.747,-1.647 1.656,-1.647c0.918,0 1.656,0.738 1.656,1.647c-0,0.909 -0.738,1.638 -1.656,1.638Z" style="fill:#cfd4d6;fill-rule:nonzero;"/><path d="M94.735,567.246c-0.683,-0.103 -1.216,-0.687 -1.216,-1.397c-0,-0.691 0.503,-1.269 1.159,-1.396c0.014,0.933 0.033,1.863 0.057,2.793Z" style="fill:#b9bac3;fill-rule:nonzero;"/><path d="M94.95,567.262c-0.073,-0 -0.145,-0.006 -0.215,-0.016c-0.024,-0.93 -0.043,-1.86 -0.057,-2.793c0.088,-0.017 0.179,-0.026 0.272,-0.026c0.792,-0 1.431,0.639 1.431,1.422c-0,0.783 -0.639,1.413 -1.431,1.413Z" style="fill:#cfd4d6;fill-rule:nonzero;"/><path d="M89.361,495.883c-0.702,0 -1.269,-0.558 -1.269,-1.251c0,-0.693 0.567,-1.26 1.269,-1.26c0.702,-0 1.269,0.567 1.269,1.26c-0,0.693 -0.567,1.251 -1.269,1.251Z" style="fill:#b9bac3;fill-rule:nonzero;"/><path d="M88.389,462.574c-0.549,-0 -0.99,-0.441 -0.99,-0.981c0,-0.539 0.441,-0.981 0.99,-0.981c0.549,0 0.99,0.442 0.99,0.981c-0,0.54 -0.441,0.981 -0.99,0.981Z" style="fill:#b9bac3;fill-rule:nonzero;"/><path d="M65.97,483.733c-0.675,0 -1.224,-0.54 -1.224,-1.206c0,-0.666 0.549,-1.215 1.224,-1.215c0.675,0 1.215,0.549 1.215,1.215c-0,0.666 -0.54,1.206 -1.215,1.206Z" style="fill:#b9bac3;fill-rule:nonzero;"/><path d="M74.493,537.085c-0.432,-0 -0.783,-0.342 -0.783,-0.774c-0,-0.423 0.351,-0.774 0.783,-0.774c0.432,-0 0.783,0.351 0.783,0.774c0,0.432 -0.351,0.774 -0.783,0.774Z" style="fill:#b9bac3;fill-rule:nonzero;"/><path d="M96.129,437.887c-0.765,-0 -1.377,-0.612 -1.377,-1.368c-0,-0.747 0.612,-1.359 1.377,-1.359c0.756,-0 1.368,0.612 1.368,1.359c0,0.756 -0.612,1.368 -1.368,1.368Z" style="fill:#b9bac3;fill-rule:nonzero;"/><path d="M21.888,511.336c-0.828,0 -1.503,-0.666 -1.503,-1.485c0,-0.819 0.675,-1.485 1.503,-1.485c0.828,0 1.494,0.666 1.494,1.485c-0,0.819 -0.666,1.485 -1.494,1.485Z" style="fill:#a9a3b2;fill-rule:nonzero;"/><path d="M225.126,215.785c-0.495,0 -0.9,-0.396 -0.9,-0.891c-0,-0.495 0.405,-0.891 0.9,-0.891c0.504,-0 0.909,0.396 0.909,0.891c0,0.495 -0.405,0.891 -0.909,0.891Z" style="fill:#a9a3b2;fill-rule:nonzero;"/><path d="M206.892,219.538c-0.738,-0 -1.332,-0.594 -1.332,-1.323c-0,-0.738 0.594,-1.332 1.332,-1.332c0.738,0 1.341,0.594 1.341,1.332c0,0.729 -0.603,1.323 -1.341,1.323Z" style="fill:#a9a3b2;fill-rule:nonzero;"/><path d="M200.241,244.963c-0.828,-0 -1.503,-0.675 -1.503,-1.494c0,-0.819 0.675,-1.485 1.503,-1.485c0.828,0 1.503,0.666 1.503,1.485c0,0.819 -0.675,1.494 -1.503,1.494Z" style="fill:#a9a3b2;fill-rule:nonzero;"/><path d="M235.188,222.814c-0.549,0 -0.999,-0.45 -0.999,-0.99c-0,-0.549 0.45,-0.999 0.999,-0.999c0.558,-0 1.008,0.45 1.008,0.999c-0,0.54 -0.45,0.99 -1.008,0.99Z" style="fill:#a9a3b2;fill-rule:nonzero;"/><path d="M225.207,219.007c-0.675,-0 -1.224,-0.54 -1.224,-1.206c0,-0.675 0.549,-1.215 1.224,-1.215c0.675,0 1.215,0.54 1.215,1.215c-0,0.666 -0.54,1.206 -1.215,1.206Z" style="fill:#a9a3b2;fill-rule:nonzero;"/><path d="M181.125,246.61c-0.828,-0 -1.503,-0.666 -1.503,-1.485c-0,-0.819 0.675,-1.485 1.503,-1.485c0.828,-0 1.494,0.666 1.494,1.485c0,0.819 -0.666,1.485 -1.494,1.485Z" style="fill:#a9a3b2;fill-rule:nonzero;"/><path d="M75.519,591.445c-0.45,-0 -0.819,-0.369 -0.819,-0.81c-0,-0.45 0.369,-0.81 0.819,-0.81c0.45,0 0.81,0.36 0.81,0.81c0,0.441 -0.36,0.81 -0.81,0.81Z" style="fill:#b9bac3;fill-rule:nonzero;"/><path d="M42.651,579.016c-0.54,0 -0.981,-0.432 -0.981,-0.972c-0,-0.54 0.441,-0.972 0.981,-0.972c0.54,0 0.981,0.432 0.981,0.972c-0,0.54 -0.441,0.972 -0.981,0.972Z" style="fill:#a9a3b2;fill-rule:nonzero;"/><path d="M38.277,587.701c-0.963,0 -1.755,-0.783 -1.755,-1.737c-0,-0.963 0.792,-1.746 1.755,-1.746c0.972,-0 1.764,0.783 1.764,1.746c0,0.954 -0.792,1.737 -1.764,1.737Z" style="fill:#a9a3b2;fill-rule:nonzero;"/><path d="M33.246,584.929c-0.801,-0 -1.44,-0.63 -1.44,-1.422c-0,-0.783 0.639,-1.422 1.44,-1.422c0.792,-0 1.431,0.639 1.431,1.422c-0,0.792 -0.639,1.422 -1.431,1.422Z" style="fill:#a9a3b2;fill-rule:nonzero;"/><path d="M176.814,555.535c-0.54,0 -0.981,-0.441 -0.981,-0.981c-0,-0.54 0.441,-0.972 0.981,-0.972c0.549,-0 0.99,0.432 0.99,0.972c0,0.54 -0.441,0.981 -0.99,0.981Z" style="fill:#cfd4d6;fill-rule:nonzero;"/><path d="M255.69,447.832c-0.504,0 -0.909,-0.405 -0.909,-0.9c0,-0.495 0.405,-0.9 0.909,-0.9c0.504,0 0.909,0.405 0.909,0.9c-0,0.495 -0.405,0.9 -0.909,0.9Z" style="fill:#cfd4d6;fill-rule:nonzero;"/><path d="M182.304,402.931c-0.675,0 -1.215,-0.531 -1.215,-1.197c0,-0.657 0.54,-1.197 1.215,-1.197c0.666,-0 1.206,0.54 1.206,1.197c-0,0.666 -0.54,1.197 -1.206,1.197Z" style="fill:#cfd4d6;fill-rule:nonzero;"/><path d="M201.735,378.514c-0.54,0 -0.972,-0.432 -0.972,-0.972c0,-0.531 0.432,-0.963 0.972,-0.963c0.54,0 0.972,0.432 0.972,0.963c0,0.54 -0.432,0.972 -0.972,0.972Z" style="fill:#cfd4d6;fill-rule:nonzero;"/><path d="M132.201,393.481c-0.882,-0 -1.602,-0.711 -1.602,-1.593c-0,-0.873 0.72,-1.584 1.602,-1.584c0.891,-0 1.611,0.711 1.611,1.584c-0,0.882 -0.72,1.593 -1.611,1.593Z" style="fill:#b9bac3;fill-rule:nonzero;"/><path d="M149.832,353.125c-0.504,0 -0.918,-0.405 -0.918,-0.909c0,-0.504 0.414,-0.918 0.918,-0.918c0.513,0 0.918,0.414 0.918,0.918c0,0.504 -0.405,0.909 -0.918,0.909Z" style="fill:#b9bac3;fill-rule:nonzero;"/><path d="M159.831,324.829c-0.648,0 -1.17,-0.522 -1.17,-1.161c-0,-0.639 0.522,-1.161 1.17,-1.161c0.648,-0 1.17,0.522 1.17,1.161c0,0.639 -0.522,1.161 -1.17,1.161Z" style="fill:#a9a3b2;fill-rule:nonzero;"/><path d="M115.785,331.696c-0.72,-0 -1.305,-0.576 -1.305,-1.296c0,-0.72 0.585,-1.296 1.305,-1.296c0.729,0 1.314,0.576 1.314,1.296c-0,0.72 -0.585,1.296 -1.314,1.296Z" style="fill:#a9a3b2;fill-rule:nonzero;"/><path d="M239.364,497.89c-0.621,0 -1.125,-0.504 -1.125,-1.116c-0,-0.621 0.504,-1.125 1.125,-1.125c0.63,0 1.134,0.504 1.134,1.125c0,0.612 -0.504,1.116 -1.134,1.116Z" style="fill:#cfd4d6;fill-rule:nonzero;"/><path d="M57.78,333.253c-0.639,-0 -1.161,-0.513 -1.161,-1.143c-0,-0.639 0.522,-1.152 1.161,-1.152c0.639,0 1.161,0.513 1.161,1.152c0,0.63 -0.522,1.143 -1.161,1.143Z" style="fill:#a9a3b2;fill-rule:nonzero;"/><path d="M79.119,446.131c-0.747,0 -1.341,-0.594 -1.341,-1.332c-0,-0.738 0.594,-1.332 1.341,-1.332c0.738,0 1.341,0.594 1.341,1.332c-0,0.738 -0.603,1.332 -1.341,1.332Z" style="fill:#b9bac3;fill-rule:nonzero;"/><path d="M21.105,336.295c-0.738,-0 -1.323,-0.594 -1.323,-1.314c-0,-0.729 0.585,-1.314 1.323,-1.314c0.729,-0 1.323,0.585 1.323,1.314c-0,0.72 -0.594,1.314 -1.323,1.314Z" style="fill:#a9a3b2;fill-rule:nonzero;"/><path d="M34.992,349.597c-0.648,-0 -1.17,-0.513 -1.17,-1.152c-0,-0.639 0.522,-1.161 1.17,-1.161c0.639,0 1.161,0.522 1.161,1.161c-0,0.639 -0.522,1.152 -1.161,1.152Z" style="fill:#a9a3b2;fill-rule:nonzero;"/><path d="M254.862,145.036c-0.864,0 -1.566,-0.693 -1.566,-1.557c0,-0.855 0.702,-1.557 1.566,-1.557c0.864,0 1.566,0.702 1.566,1.557c0,0.864 -0.702,1.557 -1.566,1.557Z" style="fill:#a9a3b2;fill-rule:nonzero;"/><path d="M286.155,143.074c-0.45,-0 -0.81,-0.36 -0.81,-0.81c0,-0.441 0.36,-0.81 0.81,-0.81c0.459,-0 0.819,0.369 0.819,0.81c-0,0.45 -0.36,0.81 -0.819,0.81Z" style="fill:#a9a3b2;fill-rule:nonzero;"/><path d="M282.708,114.355c-0.828,-0 -1.503,-0.666 -1.503,-1.485c-0,-0.819 0.675,-1.485 1.503,-1.485c0.828,0 1.503,0.666 1.503,1.485c-0,0.819 -0.675,1.485 -1.503,1.485Z" style="fill:#a9a3b2;fill-rule:nonzero;"/><path d="M317.655,92.215c-0.549,-0 -0.999,-0.45 -0.999,-0.999c0,-0.549 0.45,-0.99 0.999,-0.99c0.558,0 0.999,0.441 0.999,0.99c-0,0.549 -0.441,0.999 -0.999,0.999Z" style="fill:#a9a3b2;fill-rule:nonzero;"/><path d="M316.197,141.76c-0.432,0 -0.783,-0.342 -0.783,-0.774c0,-0.432 0.351,-0.774 0.783,-0.774c0.432,-0 0.783,0.342 0.783,0.774c0,0.432 -0.351,0.774 -0.783,0.774Z" style="fill:#a9a3b2;fill-rule:nonzero;"/><path d="M263.583,116.011c-0.819,-0 -1.495,-0.666 -1.495,-1.485c0,-0.819 0.676,-1.485 1.495,-1.485c0.828,0 1.503,0.666 1.503,1.485c-0,0.819 -0.675,1.485 -1.503,1.485Z" style="fill:#a9a3b2;fill-rule:nonzero;"/><path d="M317.214,196.111c-0.45,-0 -0.81,-0.36 -0.81,-0.801c-0,-0.45 0.36,-0.81 0.81,-0.81c0.45,0 0.819,0.36 0.819,0.81c-0,0.441 -0.369,0.801 -0.819,0.801Z" style="fill:#a9a3b2;fill-rule:nonzero;"/><path d="M284.355,183.691c-0.54,0 -0.981,-0.441 -0.981,-0.972c-0,-0.54 0.441,-0.972 0.981,-0.972c0.54,0 0.981,0.432 0.981,0.972c-0,0.531 -0.441,0.972 -0.981,0.972Z" style="fill:#a9a3b2;fill-rule:nonzero;"/><path d="M274.941,189.604c-0.792,0 -1.431,-0.639 -1.431,-1.422c0,-0.783 0.639,-1.422 1.431,-1.422c0.792,0 1.44,0.639 1.44,1.422c0,0.783 -0.648,1.422 -1.44,1.422Z" style="fill:#a9a3b2;fill-rule:nonzero;"/><path d="M291.285,242.785c-0.576,0 -1.035,-0.459 -1.035,-1.026c0,-0.567 0.459,-1.026 1.035,-1.026c0.567,0 1.035,0.459 1.035,1.026c0,0.567 -0.468,1.026 -1.035,1.026Z" style="fill:#a9a3b2;fill-rule:nonzero;"/><path d="M299.484,227.629c-0.639,0 -1.161,-0.513 -1.161,-1.143c-0,-0.639 0.522,-1.152 1.161,-1.152c0.639,-0 1.161,0.513 1.161,1.152c-0,0.63 -0.522,1.143 -1.161,1.143Z" style="fill:#a9a3b2;fill-rule:nonzero;"/><path d="M262.8,230.671c-0.729,-0 -1.324,-0.594 -1.324,-1.314c0,-0.729 0.595,-1.314 1.324,-1.314c0.738,0 1.332,0.585 1.332,1.314c-0,0.72 -0.594,1.314 -1.332,1.314Z" style="fill:#a9a3b2;fill-rule:nonzero;"/><path d="M276.687,243.973c-0.639,-0 -1.161,-0.513 -1.161,-1.152c0,-0.639 0.522,-1.161 1.161,-1.161c0.648,0 1.17,0.522 1.17,1.161c-0,0.639 -0.522,1.152 -1.17,1.152Z" style="fill:#a9a3b2;fill-rule:nonzero;"/><path d="M173.286,131.304c-0,1.042 -0.765,1.913 -1.761,2.083c0.996,0.169 1.761,1.041 1.761,2.083c-0,-1.042 0.765,-1.914 1.761,-2.083c-0.996,-0.17 -1.761,-1.041 -1.761,-2.083Z" style="fill:#f1f2f2;fill-rule:nonzero;"/></g></g></svg>