<?xml version="1.0" standalone="no"?>
<!DOCTYPE svg PUBLIC "-//W3C//DTD SVG 20010904//EN"
 "http://www.w3.org/TR/2001/REC-SVG-20010904/DTD/svg10.dtd">
<svg version="1.0" xmlns="http://www.w3.org/2000/svg"
 width="100.000000pt" height="100.000000pt" viewBox="0 0 100.000000 100.000000"
 preserveAspectRatio="xMidYMid meet">
<metadata>
Created by potrace 1.14, written by Peter Selinger 2001-2017
</metadata>
<g transform="translate(0.000000,100.000000) scale(0.100000,-0.100000)"
fill="#000000" stroke="none">
<path d="M0 568 c0 -238 4 -428 8 -423 51 57 216 335 368 619 59 111 74 131
104 144 37 15 113 10 136 -9 18 -15 17 -70 -1 -234 -17 -152 -18 -178 -6 -171
16 10 84 136 146 270 54 115 64 131 95 144 33 13 92 12 133 -4 15 -5 17 1 17
45 l0 51 -500 0 -500 0 0 -432z"/>
<path d="M966 753 c-134 -312 -315 -601 -407 -649 -37 -19 -109 -18 -138 2
-29 21 -51 71 -52 121 -1 21 -4 49 -8 63 -6 23 -12 18 -68 -65 -89 -132 -100
-140 -184 -139 -39 0 -74 5 -81 12 -22 22 -28 12 -28 -43 l0 -55 500 0 500 0
0 38 c0 35 -3 38 -53 62 -65 31 -90 71 -89 143 1 76 35 158 93 221 l50 54 -3
152 -3 151 -29 -68z"/>
</g>
</svg>
